<svg version="1.1" id="Layer_1" xmlns="http://www.w3.org/2000/svg" xmlns:xlink="http://www.w3.org/1999/xlink" x="0px" y="0px"
	 width="100%" viewBox="0 0 512 512" enable-background="new 0 0 512 512" xml:space="preserve">
<path fill="#000000" opacity="1.000000" stroke="none" 
	d="
M1.000000,99.000000 
	C1.000000,66.406403 1.000000,33.812801 1.000000,1.000000 
	C33.353897,1.000000 65.708290,1.000000 98.809822,1.293327 
	C93.413002,6.022067 91.472801,11.946937 91.855537,19.491901 
	C92.401634,30.256861 91.957184,41.072067 91.472565,51.926487 
	C82.348999,51.991428 73.688568,51.968884 65.028419,52.008293 
	C57.856113,52.040936 52.059349,57.819302 52.005600,64.963226 
	C51.937965,73.953827 51.910671,82.944725 51.406345,91.960907 
	C38.683754,91.990860 26.418913,91.886253 14.159513,92.097542 
	C11.871331,92.136978 9.435871,93.131447 7.373621,94.248627 
	C5.067791,95.497772 3.109523,97.388489 1.000000,99.000000 
z"/>
<path fill="#000000" opacity="1.000000" stroke="none" 
	d="
M99.000008,513.000000 
	C66.406403,513.000000 33.812805,513.000000 1.000000,513.000000 
	C1.000000,480.646088 1.000000,448.291718 1.291987,415.187714 
	C6.013990,420.594818 11.952888,422.516846 19.489649,422.141815 
	C30.256350,421.606079 41.071445,422.042847 51.926521,422.527527 
	C51.991413,431.654022 51.968372,440.317383 52.008369,448.980469 
	C52.041515,456.159119 57.817581,461.947388 64.953415,461.995941 
	C73.947121,462.057159 82.941032,462.089111 91.960510,462.593323 
	C91.990784,475.317169 91.886032,487.583252 92.097801,499.843872 
	C92.137321,502.132111 93.135315,504.567017 94.252876,506.629852 
	C95.501266,508.934174 97.389977,510.891602 99.000008,513.000000 
z"/>
<path fill="#000000" opacity="1.000000" stroke="none" 
	d="
M513.000000,415.000000 
	C513.000000,447.593597 513.000000,480.187164 513.000000,513.000000 
	C480.646088,513.000000 448.291718,513.000000 415.403961,512.647095 
	C420.682068,507.526917 422.550537,501.500153 422.149963,493.972687 
	C421.586761,483.388855 422.058990,472.749908 422.548340,462.076538 
	C431.671753,462.016449 440.335205,462.012024 448.998688,462.012909 
	C456.200165,462.013672 461.995972,456.239899 462.016724,449.071594 
	C462.042725,440.077301 462.094025,431.083069 462.593811,422.059998 
	C472.966614,422.020813 482.886688,421.783844 492.791229,422.075104 
	C500.111725,422.290405 507.002716,422.089111 511.621643,415.190460 
	C511.793182,414.934235 512.527771,415.054962 513.000000,415.000000 
z"/>
<path fill="#000000" opacity="1.000000" stroke="none" 
	d="
M415.000000,1.000000 
	C447.593597,1.000000 480.187164,1.000000 513.000000,1.000000 
	C513.000000,33.353897 513.000000,65.708290 512.647095,98.595642 
	C507.644897,93.547539 501.887604,91.458862 494.487549,91.847321 
	C483.731750,92.411957 472.921570,91.941040 462.076538,91.451775 
	C462.016449,82.329498 462.014954,73.667175 462.012177,65.004845 
	C462.009857,57.807560 456.230865,52.007252 449.068115,51.984161 
	C440.075012,51.955170 431.081940,51.906132 422.059967,51.406330 
	C422.020721,41.028011 421.784576,31.102493 422.074829,21.192392 
	C422.289032,13.877528 422.100952,6.986632 415.190857,2.378867 
	C414.934662,2.208033 415.055084,1.472421 415.000000,1.000000 
z"/>
<path fill="#000000" opacity="1.000000" stroke="none" 
	d="
M355.000000,1.000000 
	C369.354218,1.000000 383.708466,1.000000 398.597626,1.351759 
	C393.901123,6.502341 391.311432,11.991828 391.811768,19.538828 
	C392.523132,30.269476 391.940948,41.085876 391.451508,51.923569 
	C381.357330,51.942917 371.723114,51.904331 362.059967,51.406330 
	C362.020721,41.028011 361.784546,31.102493 362.074799,21.192392 
	C362.289032,13.877527 362.100952,6.986619 355.190857,2.378867 
	C354.934662,2.208033 355.055084,1.472422 355.000000,1.000000 
z"/>
<path fill="#000000" opacity="1.000000" stroke="none" 
	d="
M295.000000,1.000000 
	C309.354218,1.000000 323.708466,1.000000 338.597626,1.351759 
	C333.901123,6.502341 331.311462,11.991827 331.811798,19.538826 
	C332.523102,30.269476 331.940948,41.085876 331.451508,51.923569 
	C321.357330,51.942913 311.723114,51.904331 302.059967,51.406330 
	C302.020691,41.028011 301.784546,31.102493 302.074799,21.192392 
	C302.289062,13.877528 302.100952,6.986619 295.190857,2.378867 
	C294.934662,2.208033 295.055084,1.472422 295.000000,1.000000 
z"/>
<path fill="#000000" opacity="1.000000" stroke="none" 
	d="
M235.000000,0.999999 
	C249.354233,1.000000 263.708466,1.000000 278.597626,1.351759 
	C273.901123,6.502341 271.311432,11.991828 271.811768,19.538828 
	C272.523132,30.269476 271.940979,41.085876 271.453796,51.923542 
	C266.321472,52.041725 261.646790,52.102009 256.513367,52.088909 
	C251.391174,51.965656 246.727768,51.915783 242.039017,51.406281 
	C242.008942,38.683483 242.113022,26.418444 241.902237,14.158820 
	C241.862915,11.871733 240.873535,9.436560 239.757050,7.376186 
	C238.506821,5.069013 236.613495,3.110325 235.000000,0.999999 
z"/>
<path fill="#000000" opacity="1.000000" stroke="none" 
	d="
M279.000000,513.000000 
	C264.645782,513.000000 250.291550,513.000000 235.187439,512.708313 
	C240.600662,507.988159 242.515747,502.044678 242.141617,494.508179 
	C241.607147,483.741974 242.043335,472.927582 242.525543,462.073303 
	C247.648209,461.954437 252.310272,461.896057 257.434509,461.907593 
	C262.568176,462.029816 267.239685,462.082092 271.939941,462.593811 
	C271.979126,472.965790 272.168762,482.882507 271.939423,492.789490 
	C271.775360,499.875458 271.655640,506.719299 278.525330,511.228363 
	C278.906830,511.478760 278.851837,512.394104 279.000000,513.000000 
z"/>
<path fill="#000000" opacity="1.000000" stroke="none" 
	d="
M339.000000,513.000000 
	C324.645782,513.000000 310.291534,513.000000 295.403961,512.647095 
	C300.682068,507.526917 302.550568,501.500153 302.149963,493.972687 
	C301.586792,483.388855 302.058990,472.749908 302.548340,462.076538 
	C312.642578,462.057159 322.276855,462.095764 331.939941,462.593811 
	C331.979126,472.965790 332.168762,482.882507 331.939423,492.789490 
	C331.775360,499.875458 331.655640,506.719269 338.525330,511.228363 
	C338.906830,511.478760 338.851837,512.394104 339.000000,513.000000 
z"/>
<path fill="#000000" opacity="1.000000" stroke="none" 
	d="
M399.000000,513.000000 
	C384.645782,513.000000 370.291534,513.000000 355.403961,512.647095 
	C360.682068,507.526917 362.550537,501.500153 362.149933,493.972687 
	C361.586761,483.388855 362.058990,472.749908 362.548340,462.076538 
	C372.642578,462.057159 382.276855,462.095795 391.939941,462.593811 
	C391.979095,472.965790 392.168762,482.882507 391.939423,492.789490 
	C391.775421,499.875458 391.655640,506.719269 398.525330,511.228363 
	C398.906830,511.478760 398.851837,512.394104 399.000000,513.000000 
z"/>
<path fill="#000000" opacity="1.000000" stroke="none" 
	d="
M1.000000,399.000000 
	C1.000000,384.645782 1.000000,370.291534 1.291987,355.187714 
	C6.013990,360.594818 11.952888,362.516876 19.489651,362.141846 
	C30.256351,361.606110 41.071445,362.042847 51.926521,362.527527 
	C51.946766,372.639038 51.906364,382.287262 51.406334,391.960938 
	C38.683739,391.990875 26.418898,391.886261 14.159492,392.097504 
	C11.871317,392.136963 9.435863,393.131439 7.373619,394.248627 
	C5.067795,395.497772 3.109524,397.388489 1.000000,399.000000 
z"/>
<path fill="#000000" opacity="1.000000" stroke="none" 
	d="
M513.000000,355.000000 
	C513.000000,369.354218 513.000000,383.708466 512.647095,398.595642 
	C507.644897,393.547607 501.887756,391.458954 494.487579,391.847504 
	C483.731750,392.412292 472.921570,391.941071 462.076538,391.451691 
	C462.057129,381.357452 462.095764,371.723114 462.593811,362.059998 
	C472.966614,362.020813 482.886688,361.783783 492.791229,362.075073 
	C500.111755,362.290314 507.002716,362.089081 511.621613,355.190460 
	C511.793182,354.934235 512.527771,355.054962 513.000000,355.000000 
z"/>
<path fill="#000000" opacity="1.000000" stroke="none" 
	d="
M0.999998,339.000000 
	C1.000000,324.645782 1.000000,310.291534 1.291987,295.187714 
	C6.013990,300.594818 11.952888,302.516876 19.489651,302.141846 
	C30.256351,301.606110 41.071445,302.042847 51.926521,302.527527 
	C51.946770,312.639038 51.906364,322.287262 51.406334,331.960938 
	C38.683739,331.990875 26.418898,331.886292 14.159496,332.097565 
	C11.871321,332.136963 9.435851,333.131409 7.373615,334.248627 
	C5.067791,335.497772 3.109520,337.388489 0.999998,339.000000 
z"/>
<path fill="#000000" opacity="1.000000" stroke="none" 
	d="
M513.000000,235.000000 
	C513.000000,249.354233 513.000000,263.708466 512.647095,278.595642 
	C507.644897,273.547607 501.887756,271.458923 494.487579,271.847504 
	C483.731750,272.412292 472.921570,271.941071 462.076538,271.451691 
	C462.057190,261.357361 462.095825,251.722961 462.593933,242.059845 
	C472.966736,242.020813 482.886780,241.783936 492.791321,242.075180 
	C500.111755,242.290421 507.002747,242.089050 511.621613,235.190399 
	C511.793182,234.934174 512.527771,235.054916 513.000000,235.000000 
z"/>
<path fill="#000000" opacity="1.000000" stroke="none" 
	d="
M1.000001,279.000000 
	C1.000000,264.645782 1.000000,250.291550 1.291987,235.187714 
	C6.013922,240.594986 11.952972,242.516830 19.489655,242.141876 
	C30.256372,241.606216 41.071465,242.042908 51.926537,242.527588 
	C51.946766,252.639053 51.906364,262.287292 51.406334,271.960938 
	C38.683739,271.990875 26.418898,271.886292 14.159490,272.097534 
	C11.871316,272.136932 9.435852,273.131409 7.373614,274.248596 
	C5.067789,275.497772 3.109525,277.388489 1.000001,279.000000 
z"/>
<path fill="#000000" opacity="1.000000" stroke="none" 
	d="
M513.000000,295.000000 
	C513.000000,309.354218 513.000000,323.708466 512.647095,338.595642 
	C507.644897,333.547607 501.887756,331.458923 494.487579,331.847504 
	C483.731750,332.412262 472.921570,331.941040 462.076538,331.451691 
	C462.057129,321.357452 462.095764,311.723114 462.593811,302.059998 
	C472.966614,302.020813 482.886688,301.783783 492.791229,302.075073 
	C500.111755,302.290314 507.002716,302.089081 511.621643,295.190460 
	C511.793182,294.934235 512.527771,295.054962 513.000000,295.000000 
z"/>
<path fill="#000000" opacity="1.000000" stroke="none" 
	d="
M0.999999,159.000000 
	C1.000000,144.645767 1.000000,130.291550 1.291990,115.187714 
	C6.013920,120.595009 11.953002,122.516830 19.489658,122.141899 
	C30.256374,121.606270 41.071457,122.042908 51.926529,122.527573 
	C51.946774,132.639038 51.906376,142.287247 51.406349,151.960876 
	C38.683750,151.990845 26.418900,151.886246 14.159491,152.097534 
	C11.871311,152.136978 9.435848,153.131439 7.373602,154.248642 
	C5.067776,155.497787 3.109517,157.388489 0.999999,159.000000 
z"/>
<path fill="#000000" opacity="1.000000" stroke="none" 
	d="
M513.000000,175.000000 
	C513.000000,189.354233 513.000000,203.708450 512.647095,218.595642 
	C507.644897,213.547623 501.887726,211.458847 494.487579,211.847397 
	C483.731781,212.412140 472.921570,211.941116 462.076538,211.451813 
	C462.057190,201.357422 462.095856,191.722992 462.593933,182.059845 
	C472.966736,182.020828 482.886780,181.783966 492.791321,182.075211 
	C500.111755,182.290451 507.002716,182.089035 511.621582,175.190399 
	C511.793152,174.934158 512.527771,175.054932 513.000000,175.000000 
z"/>
<path fill="#000000" opacity="1.000000" stroke="none" 
	d="
M0.999998,219.000000 
	C1.000000,204.645767 1.000000,190.291550 1.291987,175.187714 
	C6.013922,180.594986 11.952971,182.516815 19.489653,182.141861 
	C30.256372,181.606216 41.071465,182.042908 51.926537,182.527588 
	C51.946777,192.639038 51.906380,202.287262 51.406349,211.960876 
	C38.683750,211.990845 26.418900,211.886246 14.159492,212.097534 
	C11.871313,212.136978 9.435858,213.131454 7.373607,214.248657 
	C5.067782,215.497772 3.109514,217.388489 0.999998,219.000000 
z"/>
<path fill="#000000" opacity="1.000000" stroke="none" 
	d="
M513.000000,115.000000 
	C513.000000,129.354233 513.000000,143.708450 512.647095,158.595642 
	C507.644897,153.547623 501.887726,151.458832 494.487579,151.847397 
	C483.731781,152.412125 472.921570,151.941101 462.076538,151.451813 
	C462.057159,141.357437 462.095825,131.723022 462.593872,122.059868 
	C472.966705,122.020851 482.886749,121.784081 492.791290,122.075272 
	C500.111725,122.290489 507.002777,122.089027 511.621643,115.190407 
	C511.793182,114.934196 512.527771,115.054932 513.000000,115.000000 
z"/>
<path fill="#000000" opacity="1.000000" stroke="none" 
	d="
M159.000000,513.000000 
	C144.645767,513.000000 130.291550,513.000000 115.187454,512.708313 
	C120.600586,507.988129 122.515778,502.044678 122.141663,494.508209 
	C121.607208,483.741974 122.043327,472.927612 122.528137,462.073273 
	C132.639160,462.053070 142.286972,462.093353 151.960480,462.593323 
	C151.990753,475.317169 151.886017,487.583221 152.097778,499.843842 
	C152.137299,502.132080 153.135300,504.566986 154.252869,506.629822 
	C155.501251,508.934143 157.389969,510.891571 159.000000,513.000000 
z"/>
<path fill="#000000" opacity="1.000000" stroke="none" 
	d="
M219.000000,513.000000 
	C204.645767,513.000000 190.291550,513.000000 175.187439,512.708313 
	C180.600662,507.988159 182.515778,502.044678 182.141632,494.508179 
	C181.607178,483.741974 182.043335,472.927582 182.528168,462.073273 
	C192.639175,462.053070 202.286987,462.093353 211.960464,462.593323 
	C211.990753,475.317169 211.886017,487.583221 212.097778,499.843842 
	C212.137299,502.132080 213.135269,504.567017 214.252838,506.629822 
	C215.501221,508.934174 217.389954,510.891602 219.000000,513.000000 
z"/>
<path fill="#000000" opacity="1.000000" stroke="none" 
	d="
M175.000000,0.999999 
	C189.354233,1.000000 203.708450,1.000000 218.809814,1.293324 
	C213.412979,6.022056 211.472855,11.946957 211.855591,19.491903 
	C212.401657,30.256868 211.957184,41.072079 211.472931,51.926468 
	C201.361511,51.946712 191.712952,51.906315 182.039032,51.406281 
	C182.008957,38.683483 182.113007,26.418447 181.902206,14.158823 
	C181.862885,11.871736 180.873535,9.436558 179.757050,7.376187 
	C178.506836,5.069004 176.613495,3.110324 175.000000,0.999999 
z"/>
<path fill="#000000" opacity="1.000000" stroke="none" 
	d="
M115.000000,1.000000 
	C129.354233,1.000000 143.708450,1.000000 158.809814,1.293324 
	C153.412979,6.022058 151.472824,11.946960 151.855545,19.491909 
	C152.401596,30.256874 151.957169,41.072083 151.472519,51.926502 
	C141.360977,51.946754 131.712677,51.906338 122.039024,51.406288 
	C122.008934,38.683487 122.112991,26.418442 121.902206,14.158813 
	C121.862885,11.871724 120.873535,9.436546 119.757057,7.376177 
	C118.506851,5.068998 116.613495,3.110322 115.000000,1.000000 
z"/>
<path fill="#39326C" opacity="1.000000" stroke="none" 
	d="
M462.134552,391.911621 
	C472.921570,391.941071 483.731750,392.412292 494.487579,391.847504 
	C501.887756,391.458954 507.644897,393.547607 512.647095,399.064331 
	C513.000000,404.022095 513.000000,409.044189 513.000000,414.533142 
	C512.527771,415.054962 511.793182,414.934235 511.621643,415.190460 
	C507.002716,422.089111 500.111725,422.290405 492.791229,422.075104 
	C482.886688,421.783844 472.966614,422.020813 462.546387,421.587830 
	C462.071259,411.400177 462.102905,401.655914 462.134552,391.911621 
z"/>
<path fill="#39326C" opacity="1.000000" stroke="none" 
	d="
M462.134583,211.911774 
	C472.921570,211.941116 483.731781,212.412140 494.487579,211.847397 
	C501.887726,211.458847 507.644897,213.547623 512.647095,219.064301 
	C513.000000,224.022095 513.000000,229.044189 513.000000,234.533142 
	C512.527771,235.054916 511.793182,234.934174 511.621613,235.190399 
	C507.002747,242.089050 500.111755,242.290421 492.791321,242.075180 
	C482.886780,241.783936 472.966736,242.020813 462.546478,241.587723 
	C462.071259,231.400146 462.102936,221.655960 462.134583,211.911774 
z"/>
<path fill="#5F55AF" opacity="1.000000" stroke="none" 
	d="
M122.064949,462.133789 
	C122.043327,472.927612 121.607208,483.741974 122.141663,494.508209 
	C122.515778,502.044678 120.600586,507.988129 114.718796,512.708313 
	C109.977905,513.000000 104.955818,513.000000 99.466873,513.000000 
	C97.389977,510.891602 95.501266,508.934174 94.252876,506.629852 
	C93.135315,504.567017 92.137321,502.132111 92.097801,499.843872 
	C91.886032,487.583252 91.990784,475.317169 92.429192,462.544983 
	C102.603127,462.069275 112.334038,462.101532 122.064949,462.133789 
z"/>
<path fill="#5F55AF" opacity="1.000000" stroke="none" 
	d="
M1.000000,399.466858 
	C3.109524,397.388489 5.067795,395.497772 7.373619,394.248627 
	C9.435863,393.131439 11.871317,392.136963 14.159492,392.097504 
	C26.418898,391.886261 38.683739,391.990875 51.454742,392.429535 
	C51.930481,402.603271 51.898174,412.333771 51.865871,422.064301 
	C41.071445,422.042847 30.256350,421.606079 19.489649,422.141815 
	C11.952888,422.516846 6.013990,420.594818 1.291987,414.719055 
	C1.000000,409.977905 1.000000,404.955811 1.000000,399.466858 
z"/>
<path fill="#5F55AF" opacity="1.000000" stroke="none" 
	d="
M182.064957,462.133789 
	C182.043335,472.927582 181.607178,483.741974 182.141632,494.508179 
	C182.515778,502.044678 180.600662,507.988159 174.718781,512.708313 
	C169.977905,513.000000 164.955811,513.000000 159.466858,513.000000 
	C157.389969,510.891571 155.501251,508.934143 154.252869,506.629822 
	C153.135300,504.566986 152.137299,502.132080 152.097778,499.843842 
	C151.886017,487.583221 151.990753,475.317169 152.429169,462.544983 
	C162.603119,462.069244 172.334030,462.101501 182.064957,462.133789 
z"/>
<path fill="#5F55AF" opacity="1.000000" stroke="none" 
	d="
M219.466858,513.000000 
	C217.389954,510.891602 215.501221,508.934174 214.252838,506.629822 
	C213.135269,504.567017 212.137299,502.132080 212.097778,499.843842 
	C211.886017,487.583221 211.990753,475.317169 212.429169,462.544983 
	C222.603119,462.069244 232.334045,462.101532 242.064972,462.133789 
	C242.043335,472.927582 241.607147,483.741974 242.141617,494.508179 
	C242.515747,502.044678 240.600662,507.988159 234.718781,512.708313 
	C229.977905,513.000000 224.955811,513.000000 219.466858,513.000000 
z"/>
<path fill="#39326C" opacity="1.000000" stroke="none" 
	d="
M462.134583,331.911621 
	C472.921570,331.941040 483.731750,332.412262 494.487579,331.847504 
	C501.887756,331.458923 507.644897,333.547607 512.647095,339.064331 
	C513.000000,344.022095 513.000000,349.044189 513.000000,354.533142 
	C512.527771,355.054962 511.793182,354.934235 511.621613,355.190460 
	C507.002716,362.089081 500.111755,362.290314 492.791229,362.075073 
	C482.886688,361.783783 472.966614,362.020813 462.546417,361.587830 
	C462.071259,351.400177 462.102905,341.655914 462.134583,331.911621 
z"/>
<path fill="#39326C" opacity="1.000000" stroke="none" 
	d="
M513.000000,294.533142 
	C512.527771,295.054962 511.793182,294.934235 511.621643,295.190460 
	C507.002716,302.089081 500.111755,302.290314 492.791229,302.075073 
	C482.886688,301.783783 472.966614,302.020813 462.546387,301.587830 
	C462.071228,291.400177 462.102905,281.655914 462.134552,271.911621 
	C472.921570,271.941071 483.731750,272.412292 494.487579,271.847504 
	C501.887756,271.458923 507.644897,273.547607 512.647095,279.064331 
	C513.000000,284.022095 513.000000,289.044189 513.000000,294.533142 
z"/>
<path fill="#5F55AF" opacity="1.000000" stroke="none" 
	d="
M1.000001,279.466858 
	C3.109525,277.388489 5.067789,275.497772 7.373614,274.248596 
	C9.435852,273.131409 11.871316,272.136932 14.159490,272.097534 
	C26.418898,271.886292 38.683739,271.990875 51.454742,272.429535 
	C51.930481,282.603271 51.898174,292.333771 51.865868,302.064301 
	C41.071445,302.042847 30.256351,301.606110 19.489651,302.141846 
	C11.952888,302.516876 6.013990,300.594818 1.291987,294.719055 
	C1.000000,289.977905 1.000000,284.955811 1.000001,279.466858 
z"/>
<path fill="#5F55AF" opacity="1.000000" stroke="none" 
	d="
M0.999998,339.466858 
	C3.109520,337.388489 5.067791,335.497772 7.373615,334.248627 
	C9.435851,333.131409 11.871321,332.136963 14.159496,332.097565 
	C26.418898,331.886292 38.683739,331.990875 51.454742,332.429565 
	C51.930481,342.603271 51.898174,352.333771 51.865868,362.064301 
	C41.071445,362.042847 30.256351,361.606110 19.489651,362.141846 
	C11.952888,362.516876 6.013990,360.594818 1.291987,354.719055 
	C1.000000,349.977905 1.000000,344.955811 0.999998,339.466858 
z"/>
<path fill="#5F55AF" opacity="1.000000" stroke="none" 
	d="
M0.999998,219.466858 
	C3.109514,217.388489 5.067782,215.497772 7.373607,214.248657 
	C9.435858,213.131454 11.871313,212.136978 14.159492,212.097534 
	C26.418900,211.886246 38.683750,211.990845 51.454758,212.429504 
	C51.930492,222.603241 51.898193,232.333801 51.865898,242.064346 
	C41.071465,242.042908 30.256372,241.606216 19.489655,242.141876 
	C11.952972,242.516830 6.013922,240.594986 1.291987,234.719055 
	C1.000000,229.977905 1.000000,224.955811 0.999998,219.466858 
z"/>
<path fill="#39326C" opacity="1.000000" stroke="none" 
	d="
M462.134583,151.911774 
	C472.921570,151.941101 483.731781,152.412125 494.487579,151.847397 
	C501.887726,151.458832 507.644897,153.547623 512.647095,159.064301 
	C513.000000,164.022095 513.000000,169.044189 513.000000,174.533142 
	C512.527771,175.054932 511.793152,174.934158 511.621582,175.190399 
	C507.002716,182.089035 500.111755,182.290451 492.791321,182.075211 
	C482.886780,181.783966 472.966736,182.020828 462.546478,181.587738 
	C462.071289,171.400146 462.102936,161.655960 462.134583,151.911774 
z"/>
<path fill="#5F55AF" opacity="1.000000" stroke="none" 
	d="
M51.865898,182.064346 
	C41.071465,182.042908 30.256372,181.606216 19.489653,182.141861 
	C11.952971,182.516815 6.013922,180.594986 1.291987,174.719055 
	C1.000000,169.977905 1.000000,164.955811 0.999999,159.466858 
	C3.109517,157.388489 5.067776,155.497787 7.373602,154.248642 
	C9.435848,153.131439 11.871311,152.136978 14.159491,152.097534 
	C26.418900,151.886246 38.683750,151.990845 51.454758,152.429504 
	C51.930496,162.603241 51.898197,172.333801 51.865898,182.064346 
z"/>
<path fill="#39326C" opacity="1.000000" stroke="none" 
	d="
M513.000000,114.533142 
	C512.527771,115.054932 511.793182,114.934196 511.621643,115.190407 
	C507.002777,122.089027 500.111725,122.290489 492.791290,122.075272 
	C482.886749,121.784081 472.966705,122.020851 462.546478,121.587738 
	C462.071289,111.400131 462.102936,101.655930 462.134583,91.911720 
	C472.921570,91.941040 483.731750,92.411957 494.487549,91.847321 
	C501.887604,91.458862 507.644897,93.547539 512.647095,99.064301 
	C513.000000,104.022095 513.000000,109.044182 513.000000,114.533142 
z"/>
<path fill="#5F55AF" opacity="1.000000" stroke="none" 
	d="
M51.865887,122.064323 
	C41.071457,122.042908 30.256374,121.606270 19.489658,122.141899 
	C11.953002,122.516830 6.013920,120.595009 1.291990,114.719055 
	C1.000000,109.977905 1.000000,104.955818 1.000000,99.466858 
	C3.109523,97.388489 5.067791,95.497772 7.373621,94.248627 
	C9.435871,93.131447 11.871331,92.136978 14.159513,92.097542 
	C26.418913,91.886253 38.683754,91.990860 51.454754,92.429512 
	C51.930489,102.603249 51.898190,112.333786 51.865887,122.064323 
z"/>
<path fill="#5F55AF" opacity="1.000000" stroke="none" 
	d="
M114.533142,1.000000 
	C116.613495,3.110322 118.506851,5.068998 119.757057,7.376177 
	C120.873535,9.436546 121.862885,11.871724 121.902206,14.158813 
	C122.112991,26.418442 122.008934,38.683487 121.570419,51.454704 
	C111.396729,51.930439 101.666275,51.898125 91.935814,51.865814 
	C91.957184,41.072067 92.401634,30.256861 91.855537,19.491901 
	C91.472801,11.946937 93.413002,6.022067 99.278481,1.293327 
	C104.022095,1.000000 109.044182,1.000000 114.533142,1.000000 
z"/>
<path fill="#5F55AF" opacity="1.000000" stroke="none" 
	d="
M151.935776,51.865829 
	C151.957169,41.072083 152.401596,30.256874 151.855545,19.491909 
	C151.472824,11.946960 153.412979,6.022058 159.278473,1.293324 
	C164.022095,1.000000 169.044189,1.000000 174.533142,0.999999 
	C176.613495,3.110324 178.506836,5.069004 179.757050,7.376187 
	C180.873535,9.436558 181.862885,11.871736 181.902206,14.158823 
	C182.113007,26.418447 182.008957,38.683483 181.570435,51.454700 
	C171.396729,51.930443 161.666245,51.898136 151.935776,51.865829 
z"/>
<path fill="#5F55AF" opacity="1.000000" stroke="none" 
	d="
M211.935791,51.865822 
	C211.957184,41.072079 212.401657,30.256868 211.855591,19.491903 
	C211.472855,11.946957 213.412979,6.022056 219.278473,1.293324 
	C224.022095,1.000000 229.044189,1.000000 234.533142,0.999999 
	C236.613495,3.110325 238.506821,5.069013 239.757050,7.376186 
	C240.873535,9.436560 241.862915,11.871733 241.902237,14.158820 
	C242.113022,26.418444 242.008942,38.683483 241.570435,51.454700 
	C231.396729,51.930443 221.666260,51.898132 211.935791,51.865822 
z"/>
<path fill="#39326C" opacity="1.000000" stroke="none" 
	d="
M399.466858,513.000000 
	C398.851837,512.394104 398.906830,511.478760 398.525330,511.228363 
	C391.655640,506.719269 391.775421,499.875458 391.939423,492.789490 
	C392.168762,482.882507 391.979095,472.965790 392.412109,462.546448 
	C402.599792,462.071259 412.344116,462.102905 422.088409,462.134552 
	C422.058990,472.749908 421.586761,483.388855 422.149963,493.972687 
	C422.550537,501.500153 420.682068,507.526917 414.935303,512.647095 
	C409.977905,513.000000 404.955811,513.000000 399.466858,513.000000 
z"/>
<path fill="#39326C" opacity="1.000000" stroke="none" 
	d="
M362.088440,462.134552 
	C362.058990,472.749908 361.586761,483.388855 362.149933,493.972687 
	C362.550537,501.500153 360.682068,507.526917 354.935303,512.647095 
	C349.977905,513.000000 344.955811,513.000000 339.466858,513.000000 
	C338.851837,512.394104 338.906830,511.478760 338.525330,511.228363 
	C331.655640,506.719269 331.775360,499.875458 331.939423,492.789490 
	C332.168762,482.882507 331.979126,472.965790 332.412109,462.546448 
	C342.599792,462.071259 352.344116,462.102905 362.088440,462.134552 
z"/>
<path fill="#39326C" opacity="1.000000" stroke="none" 
	d="
M302.088409,462.134583 
	C302.058990,472.749908 301.586792,483.388855 302.149963,493.972687 
	C302.550568,501.500153 300.682068,507.526917 294.935303,512.647095 
	C289.977905,513.000000 284.955811,513.000000 279.466858,513.000000 
	C278.851837,512.394104 278.906830,511.478760 278.525330,511.228363 
	C271.655640,506.719299 271.775360,499.875458 271.939423,492.789490 
	C272.168762,482.882507 271.979126,472.965790 272.412109,462.546448 
	C282.599792,462.071289 292.344116,462.102936 302.088409,462.134583 
z"/>
<path fill="#39326C" opacity="1.000000" stroke="none" 
	d="
M271.911438,51.865643 
	C271.940979,41.085876 272.523132,30.269476 271.811768,19.538828 
	C271.311432,11.991828 273.901123,6.502341 279.066284,1.351759 
	C284.022095,1.000000 289.044189,1.000000 294.533142,1.000000 
	C295.055084,1.472422 294.934662,2.208033 295.190857,2.378867 
	C302.100952,6.986619 302.289062,13.877528 302.074799,21.192392 
	C301.784546,31.102493 302.020691,41.028011 301.587769,51.453770 
	C291.400146,51.928963 281.655792,51.897305 271.911438,51.865643 
z"/>
<path fill="#39326C" opacity="1.000000" stroke="none" 
	d="
M331.911438,51.865643 
	C331.940948,41.085876 332.523102,30.269476 331.811798,19.538826 
	C331.311462,11.991827 333.901123,6.502341 339.066284,1.351759 
	C344.022095,1.000000 349.044189,1.000000 354.533142,1.000000 
	C355.055084,1.472422 354.934662,2.208033 355.190857,2.378867 
	C362.100952,6.986619 362.289032,13.877527 362.074799,21.192392 
	C361.784546,31.102493 362.020721,41.028011 361.587769,51.453770 
	C351.400146,51.928967 341.655792,51.897305 331.911438,51.865643 
z"/>
<path fill="#39326C" opacity="1.000000" stroke="none" 
	d="
M391.911438,51.865643 
	C391.940948,41.085876 392.523132,30.269476 391.811768,19.538828 
	C391.311432,11.991828 393.901123,6.502341 399.066284,1.351759 
	C404.022095,1.000000 409.044189,1.000000 414.533142,1.000000 
	C415.055084,1.472421 414.934662,2.208033 415.190857,2.378867 
	C422.100952,6.986632 422.289032,13.877528 422.074829,21.192392 
	C421.784576,31.102493 422.020721,41.028011 421.587769,51.453770 
	C411.400146,51.928967 401.655792,51.897305 391.911438,51.865643 
z"/>
<path fill="#AED0FF" opacity="1.000000" stroke="none" 
	d="
M211.472931,51.926468 
	C221.666260,51.898132 231.396729,51.930443 241.595795,51.914330 
	C246.727768,51.915783 251.391174,51.965656 256.520416,52.547104 
	C256.985992,72.639801 256.985718,92.200928 256.523499,111.846909 
	C213.763382,111.954498 171.465179,111.967491 129.166992,112.006470 
	C117.906769,112.016846 112.006844,117.970810 112.005478,129.320450 
	C111.995232,214.417542 111.995415,299.514648 112.005081,384.611725 
	C112.006393,396.186157 117.893547,401.992401 129.606415,401.995758 
	C169.906799,402.007324 210.207184,401.996735 250.507568,402.010590 
	C252.666885,402.011353 254.826126,402.158783 256.989624,402.691650 
	C256.986664,422.709473 256.979523,442.273590 256.972351,461.837677 
	C252.310272,461.896057 247.648209,461.954437 242.525543,462.073303 
	C232.334045,462.101532 222.603119,462.069244 212.403503,462.085327 
	C202.286987,462.093353 192.639175,462.053070 182.528168,462.073273 
	C172.334030,462.101501 162.603119,462.069244 152.403503,462.085327 
	C142.286972,462.093353 132.639160,462.053070 122.528137,462.073273 
	C112.334038,462.101532 102.603127,462.069275 92.403534,462.085327 
	C82.941032,462.089111 73.947121,462.057159 64.953415,461.995941 
	C57.817581,461.947388 52.041515,456.159119 52.008369,448.980469 
	C51.968372,440.317383 51.991413,431.654022 51.926521,422.527527 
	C51.898174,412.333771 51.930481,402.603271 51.914375,392.404114 
	C51.906364,382.287262 51.946766,372.639038 51.926521,362.527527 
	C51.898174,352.333771 51.930481,342.603271 51.914375,332.404114 
	C51.906364,322.287262 51.946770,312.639038 51.926521,302.527527 
	C51.898174,292.333771 51.930481,282.603271 51.914375,272.404114 
	C51.906364,262.287292 51.946766,252.639053 51.926533,242.527588 
	C51.898193,232.333801 51.930492,222.603241 51.914387,212.404083 
	C51.906380,202.287262 51.946777,192.639038 51.926537,182.527588 
	C51.898197,172.333801 51.930496,162.603241 51.914391,152.404083 
	C51.906376,142.287247 51.946774,132.639038 51.926529,122.527573 
	C51.898190,112.333786 51.930489,102.603249 51.914383,92.404099 
	C51.910671,82.944725 51.937965,73.953827 52.005600,64.963226 
	C52.059349,57.819302 57.856113,52.040936 65.028419,52.008293 
	C73.688568,51.968884 82.348999,51.991428 91.472565,51.926483 
	C101.666275,51.898125 111.396729,51.930439 121.595795,51.914337 
	C131.712677,51.906338 141.360977,51.946754 151.472519,51.926498 
	C161.666245,51.898136 171.396729,51.930443 181.595795,51.914330 
	C191.712952,51.906315 201.361511,51.946712 211.472931,51.926468 
z"/>
<path fill="#7C84E8" opacity="1.000000" stroke="none" 
	d="
M257.434509,461.907593 
	C256.979523,442.273590 256.986664,422.709473 257.001343,402.574860 
	C257.008881,402.004333 257.030945,401.770630 257.491455,401.852173 
	C300.432770,401.955841 342.913544,401.989868 385.394348,401.991760 
	C396.067139,401.992249 401.992615,395.997406 401.994019,385.222076 
	C402.005127,299.759857 402.004852,214.297653 401.994537,128.835434 
	C401.993195,117.836235 396.082001,112.007065 384.958862,112.004013 
	C343.976990,111.992798 302.995117,111.996727 262.013245,112.009048 
	C260.352509,112.009544 258.691833,112.152641 257.020081,112.112450 
	C257.009033,111.995605 256.985443,111.762047 256.985443,111.762047 
	C256.985718,92.200928 256.985992,72.639801 256.979187,52.620487 
	C261.646790,52.102009 266.321472,52.041725 271.453796,51.923542 
	C281.655792,51.897305 291.400146,51.928963 301.616699,51.913185 
	C311.723114,51.904331 321.357330,51.942913 331.451508,51.923569 
	C341.655792,51.897305 351.400146,51.928967 361.616699,51.913185 
	C371.723114,51.904331 381.357330,51.942917 391.451508,51.923569 
	C401.655792,51.897305 411.400146,51.928967 421.616699,51.913185 
	C431.081940,51.906132 440.075012,51.955170 449.068115,51.984161 
	C456.230865,52.007252 462.009857,57.807560 462.012177,65.004845 
	C462.014954,73.667175 462.016449,82.329498 462.076569,91.451775 
	C462.102936,101.655930 462.071289,111.400131 462.087036,121.616470 
	C462.095825,131.723022 462.057159,141.357437 462.076538,151.451813 
	C462.102936,161.655960 462.071289,171.400146 462.087036,181.616455 
	C462.095856,191.722992 462.057190,201.357422 462.076538,211.451813 
	C462.102936,221.655960 462.071259,231.400146 462.087036,241.616455 
	C462.095825,251.722961 462.057190,261.357361 462.076538,271.451691 
	C462.102905,281.655914 462.071228,291.400177 462.086975,301.616638 
	C462.095764,311.723114 462.057129,321.357452 462.076538,331.451691 
	C462.102905,341.655914 462.071259,351.400177 462.086975,361.616638 
	C462.095764,371.723114 462.057129,381.357452 462.076538,391.451691 
	C462.102905,401.655914 462.071259,411.400177 462.087006,421.616638 
	C462.094025,431.083069 462.042725,440.077301 462.016724,449.071594 
	C461.995972,456.239899 456.200165,462.013672 448.998688,462.012909 
	C440.335205,462.012024 431.671753,462.016449 422.548340,462.076538 
	C412.344116,462.102905 402.599792,462.071259 392.383331,462.087006 
	C382.276855,462.095795 372.642578,462.057159 362.548340,462.076538 
	C352.344116,462.102905 342.599792,462.071259 332.383331,462.087006 
	C322.276855,462.095764 312.642578,462.057159 302.548340,462.076538 
	C292.344116,462.102936 282.599792,462.071289 272.383331,462.087036 
	C267.239685,462.082092 262.568176,462.029816 257.434509,461.907593 
z"/>
<path fill="#5F55AF" opacity="1.000000" stroke="none" 
	d="
M256.997131,402.121155 
	C254.826126,402.158783 252.666885,402.011353 250.507568,402.010590 
	C210.207184,401.996735 169.906799,402.007324 129.606415,401.995758 
	C117.893547,401.992401 112.006393,396.186157 112.005081,384.611725 
	C111.995415,299.514648 111.995232,214.417542 112.005478,129.320450 
	C112.006844,117.970810 117.906769,112.016846 129.166992,112.006470 
	C171.465179,111.967491 213.763382,111.954498 256.523499,111.846909 
	C256.985443,111.762047 257.009033,111.995605 257.010986,112.565521 
	C256.949493,146.834274 256.886017,180.533096 256.571289,213.968765 
	C253.903046,207.327957 251.528610,200.933807 249.058395,194.576874 
	C245.923004,186.508209 239.908783,182.071854 232.192886,182.017593 
	C224.547333,181.963852 218.194046,186.415466 215.159821,194.359161 
	C200.379791,233.053619 185.640839,271.763916 170.968185,310.499207 
	C167.540955,319.546997 171.175629,328.054535 179.431778,331.050049 
	C187.479218,333.969788 195.507889,329.936615 198.966827,321.168304 
	C200.981293,316.061707 202.743332,310.848877 204.949722,305.829193 
	C205.542542,304.480499 207.342255,302.748108 208.595230,302.742218 
	C224.737656,302.666321 240.881393,302.871521 257.018280,303.473816 
	C257.018158,336.551605 257.024567,369.161133 257.030945,401.770630 
	C257.030945,401.770630 257.008881,402.004333 256.997131,402.121155 
z"/>
<path fill="#39326C" opacity="1.000000" stroke="none" 
	d="
M257.491455,401.852173 
	C257.024567,369.161133 257.018158,336.551605 257.049866,303.357117 
	C257.087982,302.772156 256.886810,302.637726 257.212372,302.840607 
	C259.955902,309.204620 262.247650,315.419861 264.854919,321.499817 
	C265.877106,323.883484 267.256531,326.319641 269.081146,328.113647 
	C273.953247,332.904114 281.843414,333.417755 287.486420,329.722443 
	C293.437927,325.825104 295.884033,318.472229 293.225220,311.254700 
	C287.614410,296.023590 281.855621,280.846344 276.070923,265.680023 
	C270.124023,250.088318 264.073944,234.535934 258.041199,218.613556 
	C257.616455,216.917816 257.219482,215.574875 256.822540,214.231934 
	C256.886017,180.533096 256.949493,146.834274 257.022034,112.682373 
	C258.691833,112.152641 260.352509,112.009544 262.013245,112.009048 
	C302.995117,111.996727 343.976990,111.992798 384.958862,112.004013 
	C396.082001,112.007065 401.993195,117.836235 401.994537,128.835434 
	C402.004852,214.297653 402.005127,299.759857 401.994019,385.222076 
	C401.992615,395.997406 396.067139,401.992249 385.394348,401.991760 
	C342.913544,401.989868 300.432770,401.955841 257.491455,401.852173 
M338.970367,185.425613 
	C333.850403,181.591568 328.392334,180.751465 322.620087,183.781540 
	C316.856476,186.807068 314.475433,191.833466 314.475250,198.164429 
	C314.474121,237.315796 314.428131,276.467255 314.505768,315.618469 
	C314.525055,325.354675 320.888977,332.054413 329.584442,332.001892 
	C338.102051,331.950439 344.457642,325.380829 344.481659,315.946106 
	C344.581848,276.628418 344.668549,237.308945 344.304626,197.994354 
	C344.267212,193.955399 341.188873,189.944611 338.970367,185.425613 
z"/>
<path fill="#F8F8F9" opacity="1.000000" stroke="none" 
	d="
M256.571289,213.968765 
	C257.219482,215.574875 257.616455,216.917816 257.796570,218.951874 
	C257.389404,221.770386 257.039429,223.897293 257.032898,226.025253 
	C256.954681,251.562653 256.927399,277.100220 256.886810,302.637726 
	C256.886810,302.637726 257.087982,302.772156 257.056396,302.888855 
	C240.881393,302.871521 224.737656,302.666321 208.595230,302.742218 
	C207.342255,302.748108 205.542542,304.480499 204.949722,305.829193 
	C202.743332,310.848877 200.981293,316.061707 198.966827,321.168304 
	C195.507889,329.936615 187.479218,333.969788 179.431778,331.050049 
	C171.175629,328.054535 167.540955,319.546997 170.968185,310.499207 
	C185.640839,271.763916 200.379791,233.053619 215.159821,194.359161 
	C218.194046,186.415466 224.547333,181.963852 232.192886,182.017593 
	C239.908783,182.071854 245.923004,186.508209 249.058395,194.576874 
	C251.528610,200.933807 253.903046,207.327957 256.571289,213.968765 
M230.984955,237.038132 
	C226.588379,248.606873 222.191803,260.175598 217.614243,272.220581 
	C227.460236,272.220581 236.591904,272.220581 246.320755,272.220581 
	C241.737915,260.081360 237.370453,248.477448 232.921524,236.904800 
	C232.793533,236.571869 231.801590,236.571060 230.984955,237.038132 
z"/>
<path fill="#DDDAF0" opacity="1.000000" stroke="none" 
	d="
M339.245972,185.673187 
	C341.188873,189.944611 344.267212,193.955399 344.304626,197.994354 
	C344.668549,237.308945 344.581848,276.628418 344.481659,315.946106 
	C344.457642,325.380829 338.102051,331.950439 329.584442,332.001892 
	C320.888977,332.054413 314.525055,325.354675 314.505768,315.618469 
	C314.428131,276.467255 314.474121,237.315796 314.475250,198.164429 
	C314.475433,191.833466 316.856476,186.807068 322.620087,183.781540 
	C328.392334,180.751465 333.850403,181.591568 339.245972,185.673187 
z"/>
<path fill="#E0DDF2" opacity="1.000000" stroke="none" 
	d="
M257.212372,302.840607 
	C256.927399,277.100220 256.954681,251.562653 257.032898,226.025253 
	C257.039429,223.897293 257.389404,221.770386 257.824402,219.304672 
	C264.073944,234.535934 270.124023,250.088318 276.070923,265.680023 
	C281.855621,280.846344 287.614410,296.023590 293.225220,311.254700 
	C295.884033,318.472229 293.437927,325.825104 287.486420,329.722443 
	C281.843414,333.417755 273.953247,332.904114 269.081146,328.113647 
	C267.256531,326.319641 265.877106,323.883484 264.854919,321.499817 
	C262.247650,315.419861 259.955902,309.204620 257.212372,302.840607 
z"/>
<path fill="#655CB2" opacity="1.000000" stroke="none" 
	d="
M231.098724,236.726761 
	C231.801590,236.571060 232.793533,236.571869 232.921524,236.904800 
	C237.370453,248.477448 241.737915,260.081360 246.320755,272.220581 
	C236.591904,272.220581 227.460236,272.220581 217.614243,272.220581 
	C222.191803,260.175598 226.588379,248.606873 231.098724,236.726761 
z"/>
</svg>