<svg version="1.1" id="Layer_1" xmlns="http://www.w3.org/2000/svg" xmlns:xlink="http://www.w3.org/1999/xlink" x="0px" y="0px"
	 width="100%" viewBox="0 0 512 512" enable-background="new 0 0 512 512" xml:space="preserve">
<path fill="#000000" opacity="1.000000" stroke="none" 
	d="
M513.000000,250.000000 
	C513.000000,337.978638 513.000000,425.457275 513.000000,512.967957 
	C342.396362,512.967957 171.792694,512.967957 1.094520,512.967957 
	C1.094520,342.438049 1.094520,171.876038 1.094520,1.157005 
	C171.666550,1.157005 342.333252,1.157005 513.000000,1.157005 
	C513.000000,83.873932 513.000000,166.686966 513.000000,250.000000 
M244.167160,21.033995 
	C241.096725,22.320311 238.026276,23.606627 234.237579,24.999702 
	C225.530197,30.896563 224.579697,46.347843 234.236923,54.811543 
	C236.821014,55.923489 239.405106,57.035431 241.977325,59.064415 
	C241.954193,64.672470 241.931061,70.280518 240.987488,75.970078 
	C230.617737,76.028244 220.248001,76.086403 209.154892,76.037346 
	C208.428040,76.080627 207.701202,76.123909 206.159698,76.019272 
	C204.784119,76.065453 203.408539,76.111633 201.576248,76.003571 
	C201.576248,76.003571 201.100327,75.926888 200.657684,75.167824 
	C192.097656,75.168182 183.537643,75.168541 174.109253,75.018967 
	C164.721756,76.631828 155.334244,78.244690 145.137589,79.990280 
	C138.757843,82.049011 132.378098,84.107742 125.244354,86.010620 
	C123.047462,86.929367 120.820801,87.783302 118.658203,88.776718 
	C92.678001,100.711082 69.860527,116.728378 51.982651,139.423660 
	C35.149448,160.792770 23.465687,184.558197 17.002424,211.790222 
	C15.635526,218.840805 14.268627,225.891388 12.979827,232.977570 
	C12.979827,232.977570 12.944448,232.899368 12.436766,233.063416 
	C12.346573,233.368881 12.256381,233.674362 12.011327,234.864594 
	C11.729718,240.575912 11.448110,246.287216 10.773332,252.768021 
	C10.571071,259.844330 10.368810,266.920654 10.010451,274.862823 
	C11.061819,284.906219 12.113188,294.949615 13.262688,305.785187 
	C15.897300,316.013092 18.531912,326.241028 21.056372,337.283386 
	C25.332975,347.537170 29.609581,357.790985 33.988136,368.783875 
	C36.664650,373.928375 38.986439,379.301086 42.111141,384.157227 
	C45.688263,389.716492 49.978565,394.816864 54.211205,400.752716 
	C58.385303,405.583954 62.085449,410.957458 66.845795,415.117920 
	C73.798027,421.194061 81.511581,426.399109 88.973541,432.730957 
	C89.035553,433.486511 89.097572,434.242065 89.085960,435.516571 
	C89.105988,435.690155 89.126022,435.863739 89.195358,436.530212 
	C89.377472,436.827026 89.635780,437.023956 89.990326,437.939026 
	C90.289864,439.969116 90.589401,441.999207 90.965622,444.897461 
	C91.363831,448.263641 91.762032,451.629852 92.044998,455.730591 
	C92.011154,456.473389 91.977318,457.216187 91.032364,457.991211 
	C88.202576,457.997772 85.363281,457.859528 82.545181,458.044281 
	C78.121948,458.334229 75.402298,460.832184 75.067657,465.228210 
	C74.493477,472.771057 79.116982,486.339355 88.895332,491.053772 
	C95.819557,494.392181 102.933006,492.432526 110.899124,492.939697 
	C203.560318,492.950500 296.221497,492.962524 388.882690,492.962402 
	C390.546936,492.962402 392.211212,492.817444 394.814911,492.922852 
	C396.645203,492.949249 398.485962,492.858490 400.304199,493.020325 
	C416.879059,494.495239 425.200470,480.223480 425.936432,466.805908 
	C426.245087,461.178894 423.097931,458.172241 417.509857,458.016113 
	C414.682251,457.937073 411.850800,457.996796 409.004761,457.241913 
	C408.949371,456.493286 408.893982,455.744629 408.950531,454.272156 
	C409.294220,452.894836 409.637878,451.517548 410.682159,449.961182 
	C413.291870,448.351959 415.957886,446.826630 418.501373,445.118774 
	C428.691559,438.276306 439.616333,432.269043 448.827942,424.288971 
	C462.459778,412.479736 474.260956,398.872314 483.598114,383.115936 
	C495.656097,362.768188 502.802429,340.988434 503.757660,317.516510 
	C504.185852,306.995087 502.810547,296.210419 500.805603,285.824768 
	C497.875977,270.648834 490.839691,257.189819 480.243164,245.729675 
	C463.944305,228.102524 441.733368,220.272781 420.732788,209.268387 
	C404.120361,200.829239 389.780334,189.071136 375.330444,177.193588 
	C375.489288,163.780228 376.098633,150.350494 375.612274,136.960571 
	C375.377777,130.504471 369.776550,126.963493 362.078552,127.046783 
	C359.378876,127.030685 356.679199,127.014587 353.991333,126.069618 
	C354.063873,113.561470 353.498383,101.231613 344.992004,90.901802 
	C337.460480,81.755806 328.004303,76.470619 315.070221,76.024376 
	C304.390747,76.027695 293.711304,76.031013 282.325592,75.936836 
	C281.853088,75.984169 281.380615,76.031509 279.987946,76.050240 
	C269.993988,76.037125 260.000061,76.024010 249.978653,75.074257 
	C249.988754,69.417320 249.998856,63.760380 250.754639,58.021664 
	C252.849030,57.059189 254.943405,56.096710 257.662537,54.853832 
	C269.568726,46.243896 266.490387,27.909550 254.631805,22.190531 
	C251.411057,21.847542 248.190323,21.504555 244.167160,21.033995 
z"/>
<path fill="#ADC1E7" opacity="1.000000" stroke="none" 
	d="
M421.053528,209.900208 
	C441.733368,220.272781 463.944305,228.102524 480.243164,245.729675 
	C490.839691,257.189819 497.875977,270.648834 500.805603,285.824768 
	C502.810547,296.210419 504.185852,306.995087 503.757660,317.516510 
	C502.802429,340.988434 495.656097,362.768188 483.598114,383.115936 
	C474.260956,398.872314 462.459778,412.479736 448.827942,424.288971 
	C439.616333,432.269043 428.691559,438.276306 418.501373,445.118774 
	C415.957886,446.826630 413.291870,448.351959 410.075623,449.784454 
	C409.506989,448.133392 409.544922,446.659088 409.719604,444.827026 
	C410.191345,441.646210 410.526367,438.823120 410.971130,435.613098 
	C411.368622,432.817596 411.656311,430.408997 412.071655,427.589050 
	C412.762634,423.119019 413.325958,419.060333 414.013123,414.613617 
	C415.293335,406.203033 416.449707,398.180481 417.740845,389.796631 
	C421.630829,363.457581 425.479431,337.492889 429.103027,311.496857 
	C430.991699,297.947205 423.698669,289.800629 410.057007,289.727997 
	C397.083557,289.658905 384.110046,289.600494 371.071381,289.108368 
	C370.782532,282.080688 370.558868,275.481995 370.658691,268.851624 
	C372.201935,267.743652 373.569305,266.793640 374.616089,265.569458 
	C379.349518,260.034058 384.004242,254.431091 388.665253,248.834076 
	C399.468109,235.861771 410.258240,222.878830 421.053528,209.900208 
z"/>
<path fill="#05357C" opacity="1.000000" stroke="none" 
	d="
M393.875458,492.740112 
	C392.211212,492.817444 390.546936,492.962402 388.882690,492.962402 
	C296.221497,492.962524 203.560318,492.950500 110.188545,492.664612 
	C106.785561,490.893097 103.782814,489.768158 101.460754,487.828400 
	C95.269104,482.656067 95.353439,475.205536 95.457321,468.000763 
	C199.287659,468.001007 302.650330,468.001709 406.016357,468.436707 
	C405.478577,476.187439 404.995850,483.526764 398.731873,488.742462 
	C397.120575,490.084045 395.494629,491.408051 393.875458,492.740112 
z"/>
<path fill="#50A4EC" opacity="1.000000" stroke="none" 
	d="
M315.997772,76.166344 
	C328.004303,76.470619 337.460480,81.755806 344.992004,90.901802 
	C353.498383,101.231613 354.063873,113.561470 353.639587,126.784439 
	C353.234650,146.939621 353.181488,166.380005 353.104858,186.299133 
	C352.913269,192.407242 353.452179,198.165558 352.452850,203.643265 
	C348.439423,225.642502 330.688934,238.344238 307.011871,236.233673 
	C306.989624,216.135620 306.971985,196.481598 307.184937,176.583435 
	C311.608398,173.179535 316.621704,170.689255 319.845520,166.738693 
	C331.031647,153.030777 328.367004,135.615891 313.915527,122.281517 
	C314.710236,119.035530 315.864685,116.201012 315.911835,113.348198 
	C316.116547,100.957153 315.998505,88.560783 315.997772,76.166344 
z"/>
<path fill="#E7EFFB" opacity="1.000000" stroke="none" 
	d="
M307.016479,236.677704 
	C330.688934,238.344238 348.439423,225.642502 352.452850,203.643265 
	C353.452179,198.165558 352.913269,192.407242 353.547791,186.311554 
	C357.018829,185.782516 360.023499,185.719833 363.394470,185.724274 
	C369.042999,185.382919 372.572510,182.460251 374.999756,177.956451 
	C389.780334,189.071136 404.120361,200.829239 420.893158,209.584290 
	C410.258240,222.878830 399.468109,235.861771 388.665253,248.834076 
	C384.004242,254.431091 379.349518,260.034058 374.616089,265.569458 
	C373.569305,266.793640 372.201935,267.743652 370.586243,268.473206 
	C368.286255,259.488983 362.941193,254.916794 354.275177,254.834824 
	C345.850677,254.755127 337.423981,254.904984 328.533264,254.889008 
	C313.738342,254.700195 299.408417,254.576416 285.071136,254.123093 
	C285.823517,251.998550 286.433105,250.120285 287.373383,248.425446 
	C289.498901,244.594177 291.787659,240.853439 294.470490,237.026215 
	C298.959503,236.876953 302.987976,236.777328 307.016479,236.677704 
z"/>
<path fill="#CFDCF3" opacity="1.000000" stroke="none" 
	d="
M21.166527,336.468933 
	C18.531912,326.241028 15.897300,316.013092 13.546215,305.344147 
	C15.228944,303.759583 16.823387,302.786743 17.996094,301.445221 
	C26.499622,291.717621 34.878441,281.881104 43.373741,272.146240 
	C53.288998,260.784271 63.323364,249.526154 73.231766,238.158234 
	C86.074585,223.423660 98.916351,208.686768 111.593857,193.810486 
	C114.729317,190.131226 117.228981,185.910156 120.252144,181.984497 
	C120.483376,182.030884 120.950180,182.098495 121.107422,182.410431 
	C124.514626,183.703598 127.764603,184.684814 131.451752,185.748688 
	C134.275803,185.841187 136.662674,185.851044 139.086395,186.336166 
	C139.117615,192.202225 139.111984,197.593033 138.795258,203.127563 
	C135.165359,207.168304 131.875107,211.090027 128.522903,214.958054 
	C113.239906,232.592804 97.944962,250.217178 82.643921,267.836243 
	C64.954910,288.205078 47.295143,308.599670 29.513466,328.887329 
	C27.051970,331.695740 23.964308,333.955292 21.166527,336.468933 
z"/>
<path fill="#C6D5F0" opacity="1.000000" stroke="none" 
	d="
M21.111450,336.876160 
	C23.964308,333.955292 27.051970,331.695740 29.513466,328.887329 
	C47.295143,308.599670 64.954910,288.205078 82.643921,267.836243 
	C97.944962,250.217178 113.239906,232.592804 128.522903,214.958054 
	C131.875107,211.090027 135.165359,207.168304 139.072418,203.358154 
	C141.436722,211.405563 145.048737,218.466232 149.975281,225.130692 
	C147.478302,228.232452 145.164368,231.033234 142.791336,233.783020 
	C130.251968,248.313263 117.616447,262.761749 105.205711,277.400909 
	C102.095100,281.070068 99.690208,285.337555 96.518982,289.464661 
	C93.759773,289.632721 91.441963,289.643555 89.125435,289.703461 
	C77.526703,290.003265 69.891251,299.143982 71.590996,310.606842 
	C72.342896,315.677521 72.968170,320.766968 73.295311,325.962769 
	C64.309525,335.687286 55.757008,345.368347 47.015488,354.875580 
	C42.823452,359.434845 38.273846,363.665375 33.886181,368.044769 
	C29.609581,357.790985 25.332975,347.537170 21.111450,336.876160 
z"/>
<path fill="#063782" opacity="1.000000" stroke="none" 
	d="
M406.013000,468.002441 
	C302.650330,468.001709 199.287659,468.001007 95.402496,467.616333 
	C93.901161,464.141266 92.922318,461.050110 91.943474,457.958984 
	C91.977318,457.216187 92.011154,456.473389 92.558113,455.364594 
	C198.327011,454.997742 303.582794,454.996857 408.838562,454.996002 
	C408.893982,455.744629 408.949371,456.493286 408.714050,457.837402 
	C407.619873,461.622772 406.816437,464.812592 406.013000,468.002441 
z"/>
<path fill="#D7E2F5" opacity="1.000000" stroke="none" 
	d="
M120.020905,181.938126 
	C117.228981,185.910156 114.729317,190.131226 111.593857,193.810486 
	C98.916351,208.686768 86.074585,223.423660 73.231766,238.158234 
	C63.323364,249.526154 53.288998,260.784271 43.373741,272.146240 
	C34.878441,281.881104 26.499622,291.717621 17.996094,301.445221 
	C16.823387,302.786743 15.228944,303.759583 13.497149,304.948059 
	C12.113188,294.949615 11.061819,284.906219 10.445435,274.422729 
	C11.640501,273.705750 12.655530,273.652496 13.123306,273.119202 
	C24.273699,260.407318 35.385700,247.661560 46.461735,234.884735 
	C56.665611,223.113968 66.821945,211.301971 76.994377,199.503967 
	C84.785629,190.467636 92.415451,181.285828 100.411423,172.434631 
	C105.585991,166.706589 111.291107,161.457840 116.840439,156.456909 
	C116.930069,160.053940 116.943336,163.188370 116.944176,166.322815 
	C116.945633,171.730423 116.271507,177.269577 120.020905,181.938126 
z"/>
<path fill="#063886" opacity="1.000000" stroke="none" 
	d="
M408.894531,454.634094 
	C303.582794,454.996857 198.327011,454.997742 92.615730,454.997314 
	C91.762032,451.629852 91.363831,448.263641 91.405380,444.454285 
	C195.491699,444.007416 299.138275,443.996216 402.784821,444.049530 
	C405.051056,444.050690 407.316864,444.789825 409.582886,445.184753 
	C409.544922,446.659088 409.506989,448.133392 409.725311,449.873962 
	C409.637878,451.517548 409.294220,452.894836 408.894531,454.634094 
z"/>
<path fill="#063988" opacity="1.000000" stroke="none" 
	d="
M409.719604,444.827026 
	C407.316864,444.789825 405.051056,444.050690 402.784821,444.049530 
	C299.138275,443.996216 195.491699,444.007416 91.367035,444.020203 
	C90.589401,441.999207 90.289864,439.969116 89.902596,437.307739 
	C89.661873,436.390198 89.438942,436.177155 89.146057,436.037323 
	C89.126022,435.863739 89.105988,435.690155 89.578598,435.257843 
	C194.215347,434.999420 298.359436,434.991974 402.503510,435.041870 
	C405.289642,435.043213 408.075409,435.666656 410.861359,436.000000 
	C410.526367,438.823120 410.191345,441.646210 409.719604,444.827026 
z"/>
<path fill="#E7EFFB" opacity="1.000000" stroke="none" 
	d="
M17.166739,210.997406 
	C23.465687,184.558197 35.149448,160.792770 51.982651,139.423660 
	C69.860527,116.728378 92.678001,100.711082 118.658203,88.776718 
	C120.820801,87.783302 123.047462,86.929367 125.614662,86.442825 
	C125.272835,88.133408 124.750908,89.557892 123.819321,90.624626 
	C113.895889,101.987755 103.838860,113.234634 93.954506,124.631378 
	C81.904160,138.525528 70.005615,152.551224 58.000999,166.485214 
	C47.401119,178.788727 36.827400,191.116806 26.055441,203.268555 
	C23.472839,206.181961 20.149439,208.438675 17.166739,210.997406 
z"/>
<path fill="#E0E9F8" opacity="1.000000" stroke="none" 
	d="
M11.166500,251.998535 
	C11.448110,246.287216 11.729718,240.575912 12.273875,234.286957 
	C12.752819,233.479828 12.888826,233.209854 12.944448,232.899368 
	C12.944448,232.899368 12.979827,232.977570 13.291435,232.940140 
	C15.932912,230.833405 18.449728,228.936264 20.549936,226.655487 
	C23.911713,223.004623 26.938402,219.047882 30.210428,215.311249 
	C40.147984,203.962585 50.213177,192.724884 60.084454,181.319168 
	C74.070427,165.159149 87.856102,148.825623 101.861557,132.682663 
	C114.136238,118.534637 126.676338,104.616493 138.912094,90.435379 
	C141.656754,87.254349 143.622437,83.401245 145.946747,79.857544 
	C155.334244,78.244690 164.721756,76.631828 174.550293,75.314079 
	C174.991318,75.609192 175.023605,76.048515 174.676926,76.213959 
	C172.401764,76.823654 170.447952,77.179909 168.548798,77.726105 
	C153.490799,82.056793 144.728790,92.529602 139.737579,107.037163 
	C138.556503,107.584114 137.546097,107.934349 136.932785,108.633125 
	C132.375443,113.825531 127.782928,118.995789 123.465187,124.384315 
	C122.216850,125.942223 121.828659,128.189362 121.024750,130.322845 
	C121.003349,130.525177 120.967934,130.930527 120.749176,130.951935 
	C120.530426,130.973343 120.095352,131.036331 119.722298,131.031433 
	C118.179367,131.786087 116.798203,132.349091 115.876701,133.339706 
	C112.151276,137.344452 108.539322,141.456329 104.936798,145.573547 
	C95.444389,156.422195 85.954575,167.273270 76.509064,178.162720 
	C66.308052,189.923172 56.154842,201.725082 45.987480,213.514694 
	C38.200191,222.544464 30.518351,231.667679 22.598804,240.579773 
	C19.027437,244.598770 14.991606,248.205017 11.166500,251.998535 
z"/>
<path fill="#DDE6F7" opacity="1.000000" stroke="none" 
	d="
M10.969916,252.383270 
	C14.991606,248.205017 19.027437,244.598770 22.598804,240.579773 
	C30.518351,231.667679 38.200191,222.544464 45.987480,213.514694 
	C56.154842,201.725082 66.308052,189.923172 76.509064,178.162720 
	C85.954575,167.273270 95.444389,156.422195 104.936798,145.573547 
	C108.539322,141.456329 112.151276,137.344452 115.876701,133.339706 
	C116.798203,132.349091 118.179367,131.786087 119.593109,131.375824 
	C118.873367,134.823914 117.393204,137.869171 117.065292,141.033829 
	C116.552979,145.978180 116.821053,151.003372 116.758492,155.994324 
	C111.291107,161.457840 105.585991,166.706589 100.411423,172.434631 
	C92.415451,181.285828 84.785629,190.467636 76.994377,199.503967 
	C66.821945,211.301971 56.665611,223.113968 46.461735,234.884735 
	C35.385700,247.661560 24.273699,260.407318 13.123306,273.119202 
	C12.655530,273.652496 11.640501,273.705750 10.523483,273.989807 
	C10.368810,266.920654 10.571071,259.844330 10.969916,252.383270 
z"/>
<path fill="#073A8B" opacity="1.000000" stroke="none" 
	d="
M410.971130,435.613068 
	C408.075409,435.666656 405.289642,435.043213 402.503510,435.041870 
	C298.359436,434.991974 194.215347,434.999420 89.615417,434.998352 
	C89.097572,434.242065 89.035553,433.486511 88.974045,431.955719 
	C88.986748,430.120331 88.998940,429.060150 89.479004,428.000000 
	C197.279266,428.000153 304.611664,428.000275 411.944031,428.000427 
	C411.656311,430.408997 411.368622,432.817596 410.971130,435.613068 
z"/>
<path fill="#E4ECF9" opacity="1.000000" stroke="none" 
	d="
M145.542175,79.923912 
	C143.622437,83.401245 141.656754,87.254349 138.912094,90.435379 
	C126.676338,104.616493 114.136238,118.534637 101.861557,132.682663 
	C87.856102,148.825623 74.070427,165.159149 60.084454,181.319168 
	C50.213177,192.724884 40.147984,203.962585 30.210428,215.311249 
	C26.938402,219.047882 23.911713,223.004623 20.549936,226.655487 
	C18.449728,228.936264 15.932912,230.833405 13.252386,232.922333 
	C14.268627,225.891388 15.635526,218.840805 17.084581,211.393814 
	C20.149439,208.438675 23.472839,206.181961 26.055441,203.268555 
	C36.827400,191.116806 47.401119,178.788727 58.000999,166.485214 
	C70.005615,152.551224 81.904160,138.525528 93.954506,124.631378 
	C103.838860,113.234634 113.895889,101.987755 123.819321,90.624626 
	C124.750908,89.557892 125.272835,88.133408 125.991661,86.520744 
	C132.378098,84.107742 138.757843,82.049011 145.542175,79.923912 
z"/>
<path fill="#BCCCEC" opacity="1.000000" stroke="none" 
	d="
M33.937157,368.414307 
	C38.273846,363.665375 42.823452,359.434845 47.015488,354.875580 
	C55.757008,345.368347 64.309525,335.687286 73.422974,326.316162 
	C75.948242,341.367889 77.990242,356.181152 79.685066,371.034424 
	C78.630737,371.485016 77.740227,371.740936 77.243874,372.329376 
	C69.452301,381.566559 61.711494,390.846527 53.959015,400.116638 
	C49.978565,394.816864 45.688263,389.716492 42.111141,384.157227 
	C38.986439,379.301086 36.664650,373.928375 33.937157,368.414307 
z"/>
<path fill="#54A6EF" opacity="1.000000" stroke="none" 
	d="
M315.533997,76.095360 
	C315.998505,88.560783 316.116547,100.957153 315.911835,113.348198 
	C315.864685,116.201012 314.710236,119.035530 313.581848,122.117676 
	C309.297913,120.846748 305.591980,118.424385 301.677155,118.018936 
	C293.851746,117.208481 285.911896,117.503220 277.574921,117.254227 
	C274.418915,117.082237 271.707245,116.997612 268.997009,116.450806 
	C268.996399,109.747299 268.994446,103.505959 269.422485,97.185402 
	C280.014923,96.919876 282.791016,94.099861 282.838043,83.981590 
	C282.850372,81.332268 282.964478,78.683411 283.031830,76.034340 
	C293.711304,76.031013 304.390747,76.027695 315.533997,76.095360 
z"/>
<path fill="#5DADF9" opacity="1.000000" stroke="none" 
	d="
M206.974350,76.167191 
	C207.701202,76.123909 208.428040,76.080627 209.566208,76.316620 
	C209.977524,76.595894 210.138123,77.029274 210.060181,77.486229 
	C209.969101,80.929001 209.892807,83.916161 209.956100,86.900352 
	C210.085632,93.006691 212.985107,96.276634 218.997803,97.634689 
	C219.333649,104.340637 219.665604,110.631927 219.539261,116.997086 
	C215.061981,117.158035 211.042999,117.245117 206.561340,117.242310 
	C196.731552,117.075417 187.364426,116.998421 177.998169,116.457687 
	C178.004181,102.747574 178.009323,89.501205 178.477844,76.190979 
	C186.327591,76.060379 193.713959,75.993629 201.100327,75.926880 
	C201.100327,75.926888 201.576248,76.003571 202.053314,76.309341 
	C204.011719,76.465805 205.493027,76.316498 206.974350,76.167191 
z"/>
<path fill="#B0C4E8" opacity="1.000000" stroke="none" 
	d="
M54.085114,400.434692 
	C61.711494,390.846527 69.452301,381.566559 77.243874,372.329376 
	C77.740227,371.740936 78.630737,371.485016 79.891266,371.366028 
	C81.335655,377.105988 82.226677,382.554321 83.077347,388.416016 
	C84.010139,394.886169 84.983276,400.942963 85.916534,407.413269 
	C86.383400,411.248505 86.890160,414.670258 87.408783,418.529083 
	C87.950813,421.977448 88.480972,424.988708 89.011131,428.000000 
	C88.998940,429.060150 88.986748,430.120331 88.937592,431.577972 
	C81.511581,426.399109 73.798027,421.194061 66.845795,415.117920 
	C62.085449,410.957458 58.385303,405.583954 54.085114,400.434692 
z"/>
<path fill="#0F2552" opacity="1.000000" stroke="none" 
	d="
M375.165100,177.575012 
	C372.572510,182.460251 369.042999,185.382919 363.392883,185.277832 
	C363.007477,165.550232 362.990051,146.336151 362.972595,127.122086 
	C369.776550,126.963493 375.377777,130.504471 375.612274,136.960571 
	C376.098633,150.350494 375.489288,163.780228 375.165100,177.575012 
z"/>
<path fill="#203561" opacity="1.000000" stroke="none" 
	d="
M91.487915,457.975098 
	C92.922318,461.050110 93.901161,464.141266 94.934830,467.616821 
	C95.353439,475.205536 95.269104,482.656067 101.460754,487.828400 
	C103.782814,489.768158 106.785561,490.893097 109.719376,492.620361 
	C102.933006,492.432526 95.819557,494.392181 88.895332,491.053772 
	C79.116982,486.339355 74.493477,472.771057 75.067657,465.228210 
	C75.402298,460.832184 78.121948,458.334229 82.545181,458.044281 
	C85.363281,457.859528 88.202576,457.997772 91.487915,457.975098 
z"/>
<path fill="#091F4C" opacity="1.000000" stroke="none" 
	d="
M406.016357,468.436707 
	C406.816437,464.812592 407.619873,461.622772 408.722198,458.213379 
	C411.850800,457.996796 414.682251,457.937073 417.509857,458.016113 
	C423.097931,458.172241 426.245087,461.178894 425.936432,466.805908 
	C425.200470,480.223480 416.879059,494.495239 400.304199,493.020325 
	C398.485962,492.858490 396.645203,492.949249 394.345184,492.831482 
	C395.494629,491.408051 397.120575,490.084045 398.731873,488.742462 
	C404.995850,483.526764 405.478577,476.187439 406.016357,468.436707 
z"/>
<path fill="#152B57" opacity="1.000000" stroke="none" 
	d="
M241.907928,75.888573 
	C241.931061,70.280518 241.954193,64.672470 242.230896,58.487125 
	C242.649216,57.829685 242.813934,57.749538 243.401154,57.767876 
	C245.543427,57.783993 247.263153,57.701622 249.250000,57.717827 
	C249.681061,57.912079 249.845001,58.007759 250.008942,58.103439 
	C249.998856,63.760380 249.988754,69.417320 250.247711,75.813522 
	C252.015106,76.714020 253.513458,76.875252 255.008499,77.502525 
	C255.006195,84.274574 255.007187,90.580582 254.544769,96.966515 
	C246.723663,96.991264 239.365982,96.936089 232.005890,96.420883 
	C232.007675,89.655457 232.011871,83.350044 232.463501,77.035492 
	C235.909943,76.647095 238.908936,76.267838 241.907928,75.888573 
z"/>
<path fill="#1D325D" opacity="1.000000" stroke="none" 
	d="
M362.525574,127.084435 
	C362.990051,146.336151 363.007477,165.550232 363.026550,185.210724 
	C360.023499,185.719833 357.018829,185.782516 353.571259,185.832794 
	C353.181488,166.380005 353.234650,146.939621 353.633667,127.248871 
	C356.679199,127.014587 359.378876,127.030685 362.525574,127.084435 
z"/>
<path fill="#0D224F" opacity="1.000000" stroke="none" 
	d="
M255.008194,96.886581 
	C255.007187,90.580582 255.006195,84.274574 255.475769,77.489655 
	C258.748627,77.002838 261.554901,77.087250 264.352417,76.967468 
	C269.873535,76.731087 275.389832,76.381577 280.908112,76.078842 
	C281.380615,76.031509 281.853088,75.984169 282.678711,75.985588 
	C282.964478,78.683411 282.850372,81.332268 282.838043,83.981590 
	C282.791016,94.099861 280.014923,96.919876 268.963531,97.111366 
	C263.719147,97.039894 259.363678,96.963242 255.008194,96.886581 
z"/>
<path fill="#F29343" opacity="1.000000" stroke="none" 
	d="
M255.042603,22.857487 
	C266.490387,27.909550 269.568726,46.243896 257.339783,54.575127 
	C256.336151,51.860542 255.655258,49.424664 254.992950,46.680031 
	C255.029022,45.959316 255.046524,45.547352 255.413300,45.022736 
	C259.045441,39.744759 258.726898,37.186535 254.075729,30.549871 
	C254.432693,27.721512 254.737640,25.289499 255.042603,22.857487 
z"/>
<path fill="#FECB65" opacity="1.000000" stroke="none" 
	d="
M233.939758,54.167320 
	C224.579697,46.347843 225.530197,30.896563 234.760269,25.326239 
	C235.518402,28.749992 235.753860,31.847210 235.730652,35.196014 
	C235.316345,36.631935 235.160706,37.816269 234.995575,39.387573 
	C235.304382,41.517685 235.622650,43.260830 235.677551,45.292923 
	C234.922714,48.443684 234.431244,51.305504 233.939758,54.167320 
z"/>
<path fill="#F8C261" opacity="1.000000" stroke="none" 
	d="
M235.989319,34.944427 
	C235.753860,31.847210 235.518402,28.749992 235.119400,25.272860 
	C238.026276,23.606627 241.096725,22.320311 244.576996,21.522644 
	C245.000198,23.999121 245.013565,25.986948 244.697174,28.125137 
	C242.538605,29.142962 240.709808,30.010424 238.880997,30.877886 
	C238.705017,31.356483 238.529022,31.835081 238.353043,32.313679 
	C239.111542,32.657070 239.981995,32.861057 240.610748,33.366013 
	C245.454895,37.256283 250.252197,41.204884 255.064026,45.135391 
	C255.046524,45.547352 255.029022,45.959316 254.642349,46.639915 
	C248.178543,42.920513 242.083939,38.932472 235.989319,34.944427 
z"/>
<path fill="#F3A14D" opacity="1.000000" stroke="none" 
	d="
M235.730652,35.196014 
	C242.083939,38.932472 248.178543,42.920513 254.623779,46.948669 
	C255.655258,49.424664 256.336151,51.860542 257.027405,54.715324 
	C254.943405,56.096710 252.849030,57.059189 250.381790,58.062553 
	C249.845001,58.007759 249.681061,57.912079 249.314209,57.379971 
	C249.072464,54.971752 249.033646,52.999962 249.125336,50.723404 
	C249.193344,49.528252 249.469254,48.126362 249.016006,47.826485 
	C244.413879,44.781467 239.692795,41.916233 235.005066,39.000610 
	C235.160706,37.816269 235.316345,36.631935 235.730652,35.196014 
z"/>
<path fill="#F3A14D" opacity="1.000000" stroke="none" 
	d="
M245.026917,27.974773 
	C245.013565,25.986948 245.000198,23.999121 244.978210,21.586432 
	C248.190323,21.504555 251.411057,21.847542 254.837204,22.524010 
	C254.737640,25.289499 254.432693,27.721512 253.753265,30.400480 
	C250.594849,29.756550 247.810883,28.865662 245.026917,27.974773 
z"/>
<path fill="#F8C261" opacity="1.000000" stroke="none" 
	d="
M234.088348,54.489433 
	C234.431244,51.305504 234.922714,48.443684 235.946930,45.490776 
	C238.646179,47.276703 240.812668,49.153721 242.982712,51.447945 
	C242.983719,53.799896 242.981186,55.734646 242.978638,57.669392 
	C242.813934,57.749538 242.649216,57.829685 242.236847,58.028606 
	C239.405106,57.035431 236.821014,55.923489 234.088348,54.489433 
z"/>
<path fill="#244678" opacity="1.000000" stroke="none" 
	d="
M241.447708,75.929321 
	C238.908936,76.267838 235.909943,76.647095 231.993347,77.019661 
	C224.096542,77.018410 217.117340,77.023842 210.138123,77.029274 
	C210.138123,77.029274 209.977524,76.595894 209.927887,76.370224 
	C220.248001,76.086403 230.617737,76.028244 241.447708,75.929321 
z"/>
<path fill="#244678" opacity="1.000000" stroke="none" 
	d="
M280.448029,76.064545 
	C275.389832,76.381577 269.873535,76.731087 264.352417,76.967468 
	C261.554901,77.087250 258.748627,77.002838 255.479065,77.023605 
	C253.513458,76.875252 252.015106,76.714020 250.261444,76.281845 
	C260.000061,76.024010 269.993988,76.037125 280.448029,76.064545 
z"/>
<path fill="#BCCCEC" opacity="1.000000" stroke="none" 
	d="
M200.878998,75.547348 
	C193.713959,75.993629 186.327591,76.060379 178.107819,76.121490 
	C176.524155,76.093399 175.773880,76.070961 175.023605,76.048515 
	C175.023605,76.048515 174.991318,75.609192 174.984467,75.389046 
	C183.537643,75.168541 192.097656,75.168182 200.878998,75.547348 
z"/>
<path fill="#62AFFC" opacity="1.000000" stroke="none" 
	d="
M206.567017,76.093231 
	C205.493027,76.316498 204.011719,76.465805 202.281677,76.386467 
	C203.408539,76.111633 204.784119,76.065453 206.567017,76.093231 
z"/>
<path fill="#E4ECF9" opacity="1.000000" stroke="none" 
	d="
M12.690607,232.981384 
	C12.888826,233.209854 12.752819,233.479828 12.351307,233.844574 
	C12.256381,233.674362 12.346573,233.368881 12.690607,232.981384 
z"/>
<path fill="#073A8B" opacity="1.000000" stroke="none" 
	d="
M89.170708,436.283752 
	C89.438942,436.177155 89.661873,436.390198 89.892563,436.898682 
	C89.635780,437.023956 89.377472,436.827026 89.170708,436.283752 
z"/>
<path fill="#083F9E" opacity="1.000000" stroke="none" 
	d="
M83.117691,388.002655 
	C82.226677,382.554321 81.335655,377.105988 80.238434,371.326050 
	C77.990242,356.181152 75.948242,341.367889 73.778595,326.201263 
	C72.968170,320.766968 72.342896,315.677521 71.590996,310.606842 
	C69.891251,299.143982 77.526703,290.003265 89.125435,289.703461 
	C91.441963,289.643555 93.759773,289.632721 96.971115,289.607941 
	C105.857384,289.554321 113.849525,289.491974 122.305962,289.554199 
	C131.072067,289.715546 139.374237,289.818542 147.675629,289.773743 
	C160.781494,289.703033 173.886826,289.533173 187.442276,289.537476 
	C199.994888,289.712769 212.097839,289.820312 224.200287,289.779755 
	C235.131149,289.743164 246.061447,289.544617 257.442627,289.547180 
	C268.335358,289.722046 278.777710,289.834015 289.219513,289.795532 
	C302.470673,289.746704 315.721436,289.575836 329.425812,289.582489 
	C343.631714,289.650726 357.384125,289.594055 371.136566,289.537384 
	C384.110046,289.600494 397.083557,289.658905 410.057007,289.727997 
	C423.698669,289.800629 430.991699,297.947205 429.103027,311.496857 
	C425.479431,337.492889 421.630829,363.457581 417.226624,389.755188 
	C370.390656,390.048676 324.203613,390.022217 277.993469,389.601166 
	C277.645111,387.752228 277.344299,386.291901 276.990753,384.844452 
	C272.781342,367.611328 253.894470,358.850128 238.100098,366.983429 
	C229.589172,371.366089 224.721710,378.615814 222.522675,387.998535 
	C175.742294,388.000336 129.429993,388.001495 83.117691,388.002655 
z"/>
<path fill="#073A8E" opacity="1.000000" stroke="none" 
	d="
M89.479004,428.000000 
	C88.480972,424.988708 87.950813,421.977448 87.925537,418.509003 
	C136.360992,418.034546 184.291611,418.031036 232.222122,417.957245 
	C234.492325,417.953735 236.761566,417.326660 239.432434,416.998474 
	C246.397079,419.104950 252.972504,419.889801 259.512177,416.975403 
	C262.340851,415.714813 265.102509,414.303864 268.255524,413.116669 
	C271.843201,413.848083 275.068787,414.917694 278.296906,414.925598 
	C323.494141,415.035797 368.691742,415.001129 413.889282,415.001678 
	C413.325958,419.060333 412.762634,423.119019 412.071655,427.589050 
	C304.611664,428.000275 197.279266,428.000153 89.479004,428.000000 
z"/>
<path fill="#073C93" opacity="1.000000" stroke="none" 
	d="
M414.013092,414.613617 
	C368.691742,415.001129 323.494141,415.035797 278.296906,414.925598 
	C275.068787,414.917694 271.843201,413.848083 268.425781,412.828613 
	C269.835846,410.258698 271.436615,408.132324 273.305603,405.793610 
	C274.417725,403.398987 275.261597,401.216644 276.355652,398.758423 
	C277.025665,395.990631 277.445496,393.498749 277.901367,390.753845 
	C277.963745,390.332458 277.990143,390.164124 278.016571,389.995789 
	C324.203613,390.022217 370.390656,390.048676 417.091919,390.116547 
	C416.449707,398.180481 415.293335,406.203033 414.013092,414.613617 
z"/>
<path fill="#4FA0E8" opacity="1.000000" stroke="none" 
	d="
M371.071381,289.108368 
	C357.384125,289.594055 343.631714,289.650726 329.432739,289.162292 
	C328.990234,277.396118 328.994263,266.175079 328.998291,254.954041 
	C337.423981,254.904984 345.850677,254.755127 354.275177,254.834824 
	C362.941193,254.916794 368.286255,259.488983 370.262756,268.504913 
	C370.558868,275.481995 370.782532,282.080688 371.071381,289.108368 
z"/>
<path fill="#56A6EF" opacity="1.000000" stroke="none" 
	d="
M307.011871,236.233673 
	C302.987976,236.777328 298.959503,236.876953 294.005920,236.959961 
	C287.723267,236.970428 282.365723,236.997528 276.542419,236.985916 
	C271.387634,237.004105 266.698639,237.061005 261.546204,237.043503 
	C255.395035,237.016251 249.707245,237.063370 243.554871,237.034866 
	C235.727875,237.014175 228.365448,237.069122 220.604095,237.056534 
	C219.133041,236.903091 218.060928,236.817200 217.336090,236.508209 
	C223.329193,236.187241 228.995529,235.753525 234.614487,236.096375 
	C239.222473,236.377533 240.624466,234.603928 240.013260,230.375290 
	C239.612045,227.599579 239.332001,224.806351 239.429581,221.976868 
	C242.591721,221.841934 245.321960,221.751114 248.465027,221.640625 
	C258.929840,219.447723 266.785797,214.375107 271.300934,204.794937 
	C275.088928,196.757599 274.096466,194.994034 265.467957,194.679626 
	C264.974884,194.661667 264.485229,194.550949 263.994568,194.048828 
	C263.997803,188.723877 264.000488,183.833496 264.461609,178.856323 
	C269.294891,178.627441 273.669678,178.485352 278.490540,178.474411 
	C288.275848,178.012894 297.615082,177.420227 306.954315,176.827560 
	C306.971985,196.481598 306.989624,216.135620 307.011871,236.233673 
z"/>
<path fill="#0D224F" opacity="1.000000" stroke="none" 
	d="
M307.184937,176.583435 
	C297.615082,177.420227 288.275848,178.012894 278.476013,178.057098 
	C278.010132,172.041641 278.004852,166.574677 278.235901,161.116364 
	C278.764160,161.252457 279.068817,161.329880 279.647095,161.618439 
	C282.271362,162.372574 284.634735,162.865601 287.345032,163.475800 
	C289.791077,162.963181 291.890137,162.333389 294.303223,161.617828 
	C305.540222,153.612991 305.241302,140.449509 293.704346,133.943176 
	C291.272980,133.249603 289.133209,132.779755 286.617798,132.236084 
	C284.487457,132.438614 282.732727,132.714966 280.567749,132.968445 
	C279.438873,131.714096 278.186462,130.518448 278.100861,129.244431 
	C277.835419,125.292824 278.013397,121.311424 278.019287,117.341591 
	C285.911896,117.503220 293.851746,117.208481 301.677155,118.018936 
	C305.591980,118.424385 309.297913,120.846748 313.432007,122.520729 
	C328.367004,135.615891 331.031647,153.030777 319.845520,166.738693 
	C316.621704,170.689255 311.608398,173.179535 307.184937,176.583435 
z"/>
<path fill="#55A8F1" opacity="1.000000" stroke="none" 
	d="
M328.533295,254.889008 
	C328.994263,266.175079 328.990234,277.396118 328.979309,289.037354 
	C315.721436,289.575836 302.470673,289.746704 289.219513,289.795532 
	C278.777710,289.834015 268.335358,289.722046 257.443146,289.129547 
	C256.997925,277.377167 257.002777,266.172089 257.469788,254.887238 
	C264.271851,254.808075 270.611694,254.808716 277.402832,254.809036 
	C280.262207,254.690033 282.670349,254.571335 285.078461,254.452637 
	C299.408417,254.576416 313.738342,254.700195 328.533295,254.889008 
z"/>
<path fill="#D7E2F5" opacity="1.000000" stroke="none" 
	d="
M285.071136,254.123077 
	C282.670349,254.571335 280.262207,254.690033 277.395813,254.596527 
	C276.937500,254.384338 276.803284,253.977554 276.910156,253.522247 
	C277.014069,247.719482 277.011108,242.372055 277.008179,237.024612 
	C282.365723,236.997528 287.723267,236.970428 293.545410,237.009613 
	C291.787659,240.853439 289.498901,244.594177 287.373383,248.425446 
	C286.433105,250.120285 285.823517,251.998550 285.071136,254.123077 
z"/>
<path fill="#62AFFC" opacity="1.000000" stroke="none" 
	d="
M174.676926,76.213959 
	C175.773880,76.070961 176.524155,76.093399 177.644440,76.185333 
	C178.009323,89.501205 178.004181,102.747574 177.540558,116.530052 
	C173.493988,117.066154 169.905914,117.066154 166.000275,117.066154 
	C166.000275,126.487221 166.292877,135.129974 165.934845,143.745697 
	C165.328049,158.346909 171.136261,169.135788 183.930832,176.514450 
	C183.578934,179.027252 183.045853,181.133286 183.038300,183.241196 
	C182.974365,201.099564 183.006271,218.958267 182.754883,236.886719 
	C182.328064,236.990677 182.155762,237.024796 181.540451,237.027084 
	C176.077698,236.308990 171.057968,235.622726 165.794373,234.690430 
	C160.410721,231.231674 155.270905,228.018936 150.131088,224.806198 
	C145.048737,218.466232 141.436722,211.405563 139.383530,203.214401 
	C139.111984,197.593033 139.117615,192.202225 139.148438,185.881104 
	C139.131058,165.700928 139.088501,146.451080 139.090546,126.726974 
	C139.454147,119.835762 139.773117,113.418800 140.092102,107.001839 
	C144.728790,92.529602 153.490799,82.056793 168.548798,77.726105 
	C170.447952,77.179909 172.401764,76.823654 174.676926,76.213959 
z"/>
<path fill="#172C58" opacity="1.000000" stroke="none" 
	d="
M120.967941,130.930527 
	C120.967934,130.930527 121.003349,130.525177 121.369980,130.208954 
	C124.828262,129.063599 127.919907,128.234467 131.012878,127.848587 
	C131.014328,147.416565 131.014450,166.541306 131.014572,185.666031 
	C127.764603,184.684814 124.514626,183.703598 121.279968,182.021713 
	C121.529518,180.200500 121.963989,179.080627 121.967636,177.959335 
	C122.013992,163.712051 122.027710,149.464447 121.953667,135.217407 
	C121.946236,133.786789 121.311531,132.359406 120.967941,130.930527 
z"/>
<path fill="#0D224F" opacity="1.000000" stroke="none" 
	d="
M131.451752,185.748688 
	C131.014450,166.541306 131.014328,147.416565 131.448624,127.757553 
	C134.270676,127.215919 136.658295,127.208565 139.045929,127.201218 
	C139.088501,146.451080 139.131058,165.700928 139.111603,185.405853 
	C136.662674,185.851044 134.275803,185.841187 131.451752,185.748688 
z"/>
<path fill="#1F345F" opacity="1.000000" stroke="none" 
	d="
M120.749184,130.951935 
	C121.311531,132.359406 121.946236,133.786789 121.953667,135.217407 
	C122.027710,149.464447 122.013992,163.712051 121.967636,177.959335 
	C121.963989,179.080627 121.529518,180.200500 121.122726,181.709778 
	C120.950180,182.098495 120.483376,182.030884 120.252136,181.984497 
	C116.271507,177.269577 116.945633,171.730423 116.944176,166.322815 
	C116.943336,163.188370 116.930069,160.053940 116.840446,156.456909 
	C116.821053,151.003372 116.552979,145.978180 117.065292,141.033829 
	C117.393204,137.869171 118.873367,134.823914 119.966164,131.380737 
	C120.095352,131.036331 120.530426,130.973343 120.749184,130.951935 
z"/>
<path fill="#C0D0EE" opacity="1.000000" stroke="none" 
	d="
M149.975281,225.130692 
	C155.270905,228.018936 160.410721,231.231674 165.648346,235.010315 
	C163.737900,238.310287 161.626038,240.975357 159.747543,243.795822 
	C157.389877,247.335770 155.223495,251.003098 152.515427,254.698181 
	C146.912827,254.830948 141.764755,254.760925 136.626923,254.958038 
	C128.070526,255.286270 122.132423,261.475739 122.020386,270.018311 
	C121.935524,276.488434 121.899445,282.959167 121.841660,289.429626 
	C113.849525,289.491974 105.857384,289.554321 97.413116,289.473328 
	C99.690208,285.337555 102.095100,281.070068 105.205711,277.400909 
	C117.616447,262.761749 130.251968,248.313263 142.791336,233.783020 
	C145.164368,231.033234 147.478302,228.232452 149.975281,225.130692 
z"/>
<path fill="#DDE6F7" opacity="1.000000" stroke="none" 
	d="
M139.090546,126.726974 
	C136.658295,127.208565 134.270676,127.215919 131.447296,127.314301 
	C127.919907,128.234467 124.828262,129.063599 121.391380,130.006622 
	C121.828659,128.189362 122.216850,125.942223 123.465187,124.384315 
	C127.782928,118.995789 132.375443,113.825531 136.932785,108.633125 
	C137.546097,107.934349 138.556503,107.584114 139.737579,107.037163 
	C139.773117,113.418800 139.454147,119.835762 139.090546,126.726974 
z"/>
<path fill="#132854" opacity="1.000000" stroke="none" 
	d="
M277.574951,117.254227 
	C278.013397,121.311424 277.835419,125.292824 278.100861,129.244431 
	C278.186462,130.518448 279.438873,131.714096 280.523804,133.127045 
	C280.890137,133.308517 280.854706,133.635742 280.511597,133.729370 
	C268.841461,140.292084 267.952850,151.470825 277.999573,161.107697 
	C278.004852,166.574677 278.010132,172.041641 278.029968,177.925934 
	C273.669678,178.485352 269.294891,178.627441 263.998566,178.776688 
	C257.053314,178.683960 251.029587,178.584106 245.005280,178.047928 
	C245.008530,157.519455 245.012360,137.427322 245.476837,117.253647 
	C253.623520,117.085747 261.309570,116.999367 268.995605,116.912987 
	C271.707245,116.997612 274.418915,117.082237 277.574951,117.254227 
z"/>
<path fill="#59AAF5" opacity="1.000000" stroke="none" 
	d="
M268.997009,116.450806 
	C261.309570,116.999367 253.623520,117.085747 245.014359,117.165497 
	C236.060013,117.080315 228.028778,117.001770 219.997543,116.923225 
	C219.665604,110.631927 219.333649,104.340637 219.457855,97.572281 
	C223.945450,97.023788 227.976868,96.952347 232.008286,96.880905 
	C239.365982,96.936089 246.723663,96.991264 254.544769,96.966522 
	C259.363678,96.963242 263.719147,97.039894 268.533569,97.190590 
	C268.994446,103.505959 268.996399,109.747299 268.997009,116.450806 
z"/>
<path fill="#172C58" opacity="1.000000" stroke="none" 
	d="
M219.539261,116.997086 
	C228.028778,117.001770 236.060013,117.080315 244.553711,117.247025 
	C245.012360,137.427322 245.008530,157.519455 244.544846,178.138916 
	C237.057388,178.758194 230.029770,178.850128 222.607208,178.860382 
	C221.155502,178.642181 220.098740,178.505676 219.028275,177.947861 
	C218.984787,170.627808 218.955017,163.729050 219.002762,156.461792 
	C223.326401,147.311584 221.584702,140.060165 213.795990,134.685669 
	C211.773331,133.792236 209.961975,133.185440 207.981720,132.435150 
	C207.523178,132.219315 207.252716,132.102585 207.000900,131.480118 
	C207.008270,126.456581 207.016144,121.894386 207.024017,117.332199 
	C211.042999,117.245117 215.061981,117.158035 219.539261,116.997086 
z"/>
<path fill="#1F345F" opacity="1.000000" stroke="none" 
	d="
M206.561340,117.242310 
	C207.016144,121.894386 207.008270,126.456581 206.636475,131.557587 
	C204.844589,132.388428 203.416626,132.680450 201.622284,132.961914 
	C189.005707,137.672729 186.463547,148.707672 194.912872,160.171021 
	C194.497528,166.414169 194.246719,172.257126 193.587479,178.146164 
	C190.117126,177.497681 187.055191,176.803116 183.993256,176.108551 
	C171.136261,169.135788 165.328049,158.346909 165.934845,143.745697 
	C166.292877,135.129974 166.000275,126.487221 166.000275,117.066154 
	C169.905914,117.066154 173.493988,117.066154 177.539673,116.993790 
	C187.364426,116.998421 196.731552,117.075417 206.561340,117.242310 
z"/>
<path fill="#1D325D" opacity="1.000000" stroke="none" 
	d="
M232.005890,96.420883 
	C227.976868,96.952347 223.945450,97.023788 219.453964,97.157631 
	C212.985107,96.276634 210.085632,93.006691 209.956100,86.900352 
	C209.892807,83.916161 209.969101,80.929001 210.060181,77.486229 
	C217.117340,77.023842 224.096542,77.018410 231.545914,77.028801 
	C232.011871,83.350044 232.007675,89.655457 232.005890,96.420883 
z"/>
<path fill="#073D95" opacity="1.000000" stroke="none" 
	d="
M83.077347,388.416016 
	C129.429993,388.001495 175.742294,388.000336 222.535461,388.374573 
	C223.044220,389.501648 223.072128,390.253326 223.073151,391.399170 
	C223.643967,394.214783 224.241669,396.636230 224.885925,399.424866 
	C225.605316,401.860870 226.278168,403.929688 226.540039,406.059875 
	C223.841980,406.414185 221.555161,406.959991 219.267731,406.962585 
	C174.830673,407.012909 130.393539,406.999847 85.956413,406.999756 
	C84.983276,400.942963 84.010139,394.886169 83.077347,388.416016 
z"/>
<path fill="#073C93" opacity="1.000000" stroke="none" 
	d="
M85.916534,407.413269 
	C130.393539,406.999847 174.830673,407.012909 219.267731,406.962585 
	C221.555161,406.959991 223.841980,406.414185 226.663696,406.275269 
	C227.401794,406.702118 227.662384,406.899536 228.132080,407.318146 
	C231.866470,410.739807 235.448868,413.864899 239.031265,416.989990 
	C236.761566,417.326660 234.492325,417.953735 232.222122,417.957245 
	C184.291611,418.031036 136.360992,418.034546 87.913658,418.071930 
	C86.890160,414.670258 86.383400,411.248505 85.916534,407.413269 
z"/>
<path fill="#F9B054" opacity="1.000000" stroke="none" 
	d="
M243.401154,57.767876 
	C242.981186,55.734646 242.983719,53.799896 243.413208,51.436340 
	C245.558380,51.014412 247.276596,51.021290 248.994827,51.028168 
	C249.033646,52.999962 249.072464,54.971752 249.047089,57.281395 
	C247.263153,57.701622 245.543427,57.783993 243.401154,57.767876 
z"/>
<path fill="#FECB65" opacity="1.000000" stroke="none" 
	d="
M244.697174,28.125137 
	C247.810883,28.865662 250.594849,29.756550 253.701263,30.796827 
	C258.726898,37.186535 259.045441,39.744759 255.413315,45.022739 
	C250.252197,41.204884 245.454895,37.256283 240.610748,33.366013 
	C239.981995,32.861057 239.111542,32.657070 238.353043,32.313679 
	C238.529022,31.835081 238.705017,31.356483 238.880997,30.877886 
	C240.709808,30.010424 242.538605,29.142962 244.697174,28.125137 
z"/>
<path fill="#F29343" opacity="1.000000" stroke="none" 
	d="
M249.125336,50.723404 
	C247.276596,51.021290 245.558380,51.014412 243.409668,51.019138 
	C240.812668,49.153721 238.646179,47.276703 236.210297,45.201832 
	C235.622650,43.260830 235.304382,41.517685 234.995575,39.387573 
	C239.692795,41.916233 244.413879,44.781467 249.016006,47.826485 
	C249.469254,48.126362 249.193344,49.528252 249.125336,50.723404 
z"/>
<path fill="#5AABF6" opacity="1.000000" stroke="none" 
	d="
M257.007629,254.967026 
	C257.002777,266.172089 256.997925,277.377167 256.992523,288.999847 
	C246.061447,289.544617 235.131149,289.743164 224.200287,289.779755 
	C212.097839,289.820312 199.994888,289.712769 187.442657,289.119812 
	C186.994980,277.373169 186.996796,266.176453 187.467148,254.962036 
	C193.046585,254.940277 198.161743,255.063202 203.267029,254.891800 
	C207.314514,254.755905 211.349915,254.259308 215.594574,253.969910 
	C216.039627,254.181305 216.304413,254.241547 216.990082,254.374878 
	C230.594086,254.690384 243.800858,254.828705 257.007629,254.967026 
z"/>
<path fill="#60AFFC" opacity="1.000000" stroke="none" 
	d="
M186.998611,254.979736 
	C186.996796,266.176453 186.994980,277.373169 186.992767,288.987579 
	C173.886826,289.533173 160.781494,289.703033 147.675629,289.773743 
	C139.374237,289.818542 131.072067,289.715546 122.305954,289.554199 
	C121.899445,282.959167 121.935524,276.488434 122.020386,270.018311 
	C122.132423,261.475739 128.070526,255.286270 136.626923,254.958038 
	C141.764755,254.760925 146.912827,254.830948 152.978775,254.801178 
	C163.248260,254.768097 172.595291,254.714752 182.357697,254.738739 
	C184.181610,254.870621 185.590103,254.925171 186.998611,254.979736 
z"/>
<path fill="#203561" opacity="1.000000" stroke="none" 
	d="
M223.100037,391.005005 
	C223.072128,390.253326 223.044220,389.501648 223.003540,388.373962 
	C224.721710,378.615814 229.589172,371.366089 238.100098,366.983429 
	C253.894470,358.850128 272.781342,367.611328 276.990753,384.844452 
	C277.344299,386.291901 277.645111,387.752228 277.993469,389.601196 
	C277.990143,390.164124 277.963745,390.332458 277.447357,390.751465 
	C259.004913,391.003082 241.052475,391.004059 223.100037,391.005005 
z"/>
<path fill="#0F2552" opacity="1.000000" stroke="none" 
	d="
M239.432434,416.998474 
	C235.448868,413.864899 231.866470,410.739807 228.436615,407.029053 
	C243.405228,406.297546 258.221313,406.151733 273.037415,406.005920 
	C271.436615,408.132324 269.835846,410.258698 268.064819,412.673157 
	C265.102509,414.303864 262.340851,415.714813 259.512177,416.975403 
	C252.972504,419.889801 246.397079,419.104950 239.432434,416.998474 
z"/>
<path fill="#1D325D" opacity="1.000000" stroke="none" 
	d="
M223.073151,391.399170 
	C241.052475,391.004059 259.004913,391.003082 277.411346,391.004517 
	C277.445496,393.498749 277.025665,395.990631 275.875519,398.745789 
	C258.376617,399.025299 241.607986,399.041504 224.839371,399.057709 
	C224.241669,396.636230 223.643967,394.214783 223.073151,391.399170 
z"/>
<path fill="#152B57" opacity="1.000000" stroke="none" 
	d="
M224.885925,399.424866 
	C241.607986,399.041504 258.376617,399.025299 275.625366,399.021729 
	C275.261597,401.216644 274.417725,403.398987 273.305603,405.793610 
	C258.221313,406.151733 243.405228,406.297546 228.284607,406.732483 
	C227.662384,406.899536 227.401794,406.702118 227.074677,406.213898 
	C226.278168,403.929688 225.605316,401.860870 224.885925,399.424866 
z"/>
<path fill="#5DADF9" opacity="1.000000" stroke="none" 
	d="
M183.930832,176.514450 
	C187.055191,176.803116 190.117126,177.497681 193.972931,178.292725 
	C202.858536,178.385208 210.950256,178.377182 219.041992,178.369171 
	C220.098740,178.505676 221.155502,178.642181 222.606537,179.330017 
	C222.998917,184.749542 222.996994,189.617767 222.573029,194.572815 
	C213.946518,194.917542 212.805984,196.559036 216.335907,204.091751 
	C219.500534,210.844910 224.167786,216.392532 231.351776,219.977570 
	C234.127487,220.772018 236.562592,221.396484 238.997696,222.020966 
	C239.332001,224.806351 239.612045,227.599579 240.013260,230.375290 
	C240.624466,234.603928 239.222473,236.377533 234.614487,236.096375 
	C228.995529,235.753525 223.329193,236.187241 217.091309,236.591980 
	C216.161423,236.952621 215.823608,237.006378 214.980835,237.030029 
	C203.987061,236.938889 193.498230,236.877884 183.009399,236.816879 
	C183.006271,218.958267 182.974365,201.099564 183.038300,183.241196 
	C183.045853,181.133286 183.578934,179.027252 183.930832,176.514450 
z"/>
<path fill="#59AAF5" opacity="1.000000" stroke="none" 
	d="
M222.995071,194.485992 
	C222.996994,189.617767 222.998917,184.749542 223.001495,179.411682 
	C230.029770,178.850128 237.057388,178.758194 244.545410,178.575256 
	C251.029587,178.584106 257.053314,178.683960 263.540100,178.863464 
	C264.000488,183.833496 263.997803,188.723877 263.534241,194.126495 
	C258.047333,194.739883 253.021347,194.841034 247.535706,194.852676 
	C242.049667,194.825821 237.023254,194.888504 231.551880,194.868103 
	C228.402954,194.685364 225.699005,194.585678 222.995071,194.485992 
z"/>
<path fill="#0F2552" opacity="1.000000" stroke="none" 
	d="
M247.995361,194.942200 
	C253.021347,194.841034 258.047333,194.739883 263.533661,194.561066 
	C264.485229,194.550949 264.974884,194.661667 265.467957,194.679626 
	C274.096466,194.994034 275.088928,196.757599 271.300934,204.794937 
	C266.785797,214.375107 258.929840,219.447723 248.458771,221.118073 
	C248.024918,212.057526 248.010147,203.499863 247.995361,194.942200 
z"/>
<path fill="#1F345F" opacity="1.000000" stroke="none" 
	d="
M257.469788,254.887238 
	C243.800858,254.828705 230.594086,254.690384 217.445557,254.314987 
	C218.667099,252.901199 220.713882,251.807556 220.833725,250.532776 
	C221.250717,246.097092 220.999924,241.598648 221.003036,237.124084 
	C228.365448,237.069122 235.727875,237.014175 243.546265,237.494934 
	C244.000229,242.028259 244.146179,246.033188 243.948807,250.021133 
	C243.794098,253.147522 245.099030,254.118118 248.061371,253.993484 
	C252.717422,253.797577 257.384705,253.869202 262.506775,253.866028 
	C267.578613,253.928848 272.190948,253.953201 276.803284,253.977554 
	C276.803284,253.977554 276.937500,254.384338 276.944519,254.596832 
	C270.611694,254.808716 264.271851,254.808075 257.469788,254.887238 
z"/>
<path fill="#172C58" opacity="1.000000" stroke="none" 
	d="
M247.535721,194.852676 
	C248.010147,203.499863 248.024918,212.057526 248.045959,221.137741 
	C245.321960,221.751114 242.591721,221.841934 239.429581,221.976868 
	C236.562592,221.396484 234.127487,220.772018 231.365112,219.568604 
	C231.357513,210.976822 231.677185,202.964005 231.996857,194.951172 
	C237.023254,194.888504 242.049667,194.825821 247.535721,194.852676 
z"/>
<path fill="#132854" opacity="1.000000" stroke="none" 
	d="
M262.047241,253.827576 
	C257.384705,253.869202 252.717422,253.797577 248.061371,253.993484 
	C245.099030,254.118118 243.794098,253.147522 243.948807,250.021133 
	C244.146179,246.033188 244.000229,242.028259 244.010849,237.570572 
	C249.707245,237.063370 255.395035,237.016251 261.542572,237.502716 
	C262.017303,243.300064 262.032257,248.563812 262.047241,253.827576 
z"/>
<path fill="#0D224F" opacity="1.000000" stroke="none" 
	d="
M262.506744,253.866028 
	C262.032257,248.563812 262.017303,243.300064 262.005981,237.577087 
	C266.698639,237.061005 271.387634,237.004105 276.542419,236.985916 
	C277.011108,242.372055 277.014069,247.719482 276.910156,253.522247 
	C272.190948,253.953201 267.578613,253.928848 262.506744,253.866028 
z"/>
<path fill="#203561" opacity="1.000000" stroke="none" 
	d="
M220.604095,237.056519 
	C220.999924,241.598648 221.250717,246.097092 220.833725,250.532776 
	C220.713882,251.807556 218.667099,252.901199 217.048340,254.137787 
	C216.304413,254.241547 216.039627,254.181305 215.605347,253.499420 
	C215.436737,247.674637 215.461258,242.367386 215.485779,237.060150 
	C215.823608,237.006378 216.161423,236.952621 216.744034,236.815094 
	C218.060928,236.817200 219.133041,236.903091 220.604095,237.056519 
z"/>
<path fill="#F3A14D" opacity="1.000000" stroke="none" 
	d="
M293.989197,161.703598 
	C291.890137,162.333389 289.791077,162.963181 287.345337,163.051849 
	C286.996918,152.443771 286.995178,142.376831 286.993408,132.309891 
	C289.133209,132.779755 291.272980,133.249603 293.705353,134.400299 
	C293.995026,143.955292 293.992096,152.829453 293.989197,161.703598 
z"/>
<path fill="#F8C261" opacity="1.000000" stroke="none" 
	d="
M278.235901,161.116364 
	C267.952850,151.470825 268.841461,140.292084 280.552948,134.222076 
	C280.959198,141.907196 281.077881,149.195221 280.928589,156.477753 
	C280.895020,158.114120 279.925079,159.731308 279.386200,161.357315 
	C279.068817,161.329880 278.764160,161.252457 278.235901,161.116364 
z"/>
<path fill="#F9B054" opacity="1.000000" stroke="none" 
	d="
M279.647095,161.618439 
	C279.925079,159.731308 280.895020,158.114120 280.928589,156.477753 
	C281.077881,149.195221 280.959198,141.907196 280.896057,134.128448 
	C280.854706,133.635742 280.890137,133.308517 280.934082,133.149918 
	C282.732727,132.714966 284.487457,132.438614 286.617798,132.236084 
	C286.995178,142.376831 286.996918,152.443771 286.998383,162.934662 
	C284.634735,162.865601 282.271362,162.372574 279.647095,161.618439 
z"/>
<path fill="#F29343" opacity="1.000000" stroke="none" 
	d="
M294.303223,161.617828 
	C293.992096,152.829453 293.995026,143.955292 293.996887,134.624023 
	C305.241302,140.449509 305.540222,153.612991 294.303223,161.617828 
z"/>
<path fill="#ADC1E7" opacity="1.000000" stroke="none" 
	d="
M214.980835,237.030029 
	C215.461258,242.367386 215.436737,247.674637 215.401443,253.452377 
	C211.349915,254.259308 207.314514,254.755905 203.267029,254.891800 
	C198.161743,255.063202 193.046585,254.940277 187.467148,254.962036 
	C185.590103,254.925171 184.181610,254.870621 182.374939,254.306427 
	C181.978989,248.217499 181.981232,242.638199 181.983459,237.058914 
	C182.155762,237.024796 182.328064,236.990677 182.754883,236.886719 
	C193.498230,236.877884 203.987061,236.938889 214.980835,237.030029 
z"/>
<path fill="#BCCCEC" opacity="1.000000" stroke="none" 
	d="
M181.540466,237.027084 
	C181.981232,242.638199 181.978989,248.217499 181.959534,254.229095 
	C172.595291,254.714752 163.248260,254.768097 153.437897,254.718445 
	C155.223495,251.003098 157.389877,247.335770 159.747543,243.795822 
	C161.626038,240.975357 163.737900,238.310287 165.892197,235.256332 
	C171.057968,235.622726 176.077698,236.308990 181.540466,237.027084 
z"/>
<path fill="#1D325D" opacity="1.000000" stroke="none" 
	d="
M219.028275,177.947861 
	C210.950256,178.377182 202.858536,178.385208 194.381348,178.246658 
	C194.246719,172.257126 194.497528,166.414169 195.241180,160.301483 
	C197.817093,160.983932 199.900192,161.936081 202.397064,163.034149 
	C204.541107,163.146332 206.271362,163.112610 208.373383,163.115082 
	C210.486389,162.398651 212.227615,161.646042 214.286880,160.826294 
	C216.045029,159.449539 217.485138,158.139923 218.925247,156.830307 
	C218.955017,163.729050 218.984787,170.627808 219.028275,177.947861 
z"/>
<path fill="#F9B054" opacity="1.000000" stroke="none" 
	d="
M208.001617,163.078888 
	C206.271362,163.112610 204.541107,163.146332 202.400940,162.573120 
	C201.990250,152.301636 201.989471,142.637054 201.988678,132.972488 
	C203.416626,132.680450 204.844589,132.388428 206.636963,132.018936 
	C207.252716,132.102585 207.523178,132.219315 207.940048,132.933838 
	C208.045410,143.410294 208.023514,153.244598 208.001617,163.078888 
z"/>
<path fill="#F29343" opacity="1.000000" stroke="none" 
	d="
M219.002762,156.461792 
	C217.485138,158.139923 216.045029,159.449539 214.231857,160.419037 
	C213.908295,151.710068 213.957794,143.341187 214.007294,134.972305 
	C221.584702,140.060165 223.326401,147.311584 219.002762,156.461792 
z"/>
<path fill="#F3A14D" opacity="1.000000" stroke="none" 
	d="
M213.795990,134.685669 
	C213.957794,143.341187 213.908295,151.710068 213.913818,160.486206 
	C212.227615,161.646042 210.486389,162.398651 208.373383,163.115082 
	C208.023514,153.244598 208.045410,143.410294 208.108978,133.077316 
	C209.961975,133.185440 211.773331,133.792236 213.795990,134.685669 
z"/>
<path fill="#F8C261" opacity="1.000000" stroke="none" 
	d="
M201.622284,132.961914 
	C201.989471,142.637054 201.990250,152.301636 201.987152,162.427216 
	C199.900192,161.936081 197.817093,160.983932 195.405701,159.901306 
	C186.463547,148.707672 189.005707,137.672729 201.622284,132.961914 
z"/>
<path fill="#1D325D" opacity="1.000000" stroke="none" 
	d="
M231.551880,194.868103 
	C231.677185,202.964005 231.357513,210.976822 231.024506,219.398621 
	C224.167786,216.392532 219.500534,210.844910 216.335907,204.091751 
	C212.805984,196.559036 213.946518,194.917542 222.573029,194.572830 
	C225.699005,194.585678 228.402954,194.685364 231.551880,194.868103 
z"/>
</svg>