<svg version="1.1" id="Layer_1" xmlns="http://www.w3.org/2000/svg" xmlns:xlink="http://www.w3.org/1999/xlink" x="0px" y="0px"
	 width="100%" viewBox="0 0 512 512" enable-background="new 0 0 512 512" xml:space="preserve">
<path fill="#EAF6FF" opacity="1.000000" stroke="none" 
	d="
M105.000000,1.000000 
	C194.354233,1.000000 283.708466,1.000000 373.622742,1.160611 
	C374.455200,1.214146 374.727600,1.107070 375.000000,0.999997 
	C375.444458,1.000000 375.888885,1.000000 376.704926,1.347521 
	C381.423279,5.888690 385.020538,10.426708 385.012299,16.936415 
	C384.962463,56.337685 384.955505,95.739014 384.567749,134.934723 
	C373.812622,134.544479 363.423950,134.359818 352.567627,134.118011 
	C332.614777,134.048340 313.129059,134.102585 293.644684,133.965057 
	C289.899780,133.938629 288.078278,135.031677 288.122406,139.024551 
	C288.240265,149.681931 288.208496,160.341797 288.135437,170.999969 
	C288.111755,174.455505 289.239777,176.147644 293.061218,176.117325 
	C313.043396,175.958832 333.027069,175.988174 353.474579,176.015152 
	C362.551636,176.090897 371.165131,176.168198 379.776367,176.062302 
	C381.510010,176.040985 383.235138,175.324509 384.974304,175.401550 
	C384.989197,184.826096 384.877808,193.779739 385.040710,202.728363 
	C385.144623,208.438217 383.191956,213.027557 378.837921,216.693649 
	C377.752960,217.607178 376.917206,218.816650 375.501984,219.918732 
	C345.714630,219.958969 316.391907,220.029053 287.070007,219.907867 
	C283.418304,219.892776 281.434479,221.049393 279.728729,224.342361 
	C273.837830,235.714905 267.654572,246.939636 261.364746,258.097839 
	C260.437103,259.743500 258.415375,261.575592 256.745941,261.737793 
	C255.481415,261.860657 253.535950,259.711060 252.643478,258.145264 
	C247.537048,249.186493 241.678925,240.480392 237.964020,230.952408 
	C234.039948,220.887848 227.504807,219.622498 217.974686,219.770554 
	C183.495682,220.306198 149.003281,219.999420 114.515984,219.966675 
	C106.047913,219.958633 100.098579,215.666687 98.874992,207.620255 
	C97.882881,201.096039 98.183868,194.375168 98.028435,187.305298 
	C98.057892,176.559601 97.970245,166.250137 97.936455,155.478485 
	C97.993256,110.467995 98.098412,65.919197 97.898293,21.371775 
	C97.865028,13.965723 98.410973,7.276872 104.900352,2.500353 
	C105.160660,2.308753 104.976875,1.513824 105.000000,1.000000 
M155.952591,77.414780 
	C146.489471,102.279221 136.998947,127.133286 127.585220,152.016403 
	C125.585182,157.303070 127.001991,161.234070 131.192978,162.950439 
	C135.559799,164.738831 139.487854,162.651215 141.630005,157.283997 
	C143.355606,152.960434 144.747803,148.487427 146.741608,144.296555 
	C147.400925,142.910721 149.458344,141.338058 150.903397,141.311478 
	C163.559906,141.078781 176.224869,141.061981 188.880157,141.325546 
	C190.429077,141.357803 192.607986,143.095169 193.333374,144.601654 
	C195.345322,148.780075 196.666489,153.284988 198.404938,157.602798 
	C200.460968,162.709335 204.268921,164.669067 208.555054,163.008011 
	C212.764389,161.376740 214.202850,157.376541 212.348236,152.127121 
	C210.908157,148.050964 209.351288,144.015762 207.823578,139.970963 
	C198.599808,115.549873 189.331100,91.145653 180.174194,66.699539 
	C178.372543,61.889759 176.166229,57.840511 170.235092,57.771225 
	C165.157761,57.711906 162.596359,59.993511 159.958755,66.905090 
	C158.713791,70.167427 157.444595,73.420509 155.952591,77.414780 
M242.994461,100.500000 
	C242.994476,89.519318 243.012329,78.538605 242.987747,67.557976 
	C242.973419,61.156391 240.445526,57.856232 235.598755,57.784420 
	C230.690765,57.711704 228.003647,61.024822 228.000458,67.293938 
	C227.985794,96.076645 227.993011,124.859360 227.997421,153.642075 
	C227.997589,154.805634 227.887482,156.000351 228.105240,157.127121 
	C228.867096,161.069321 231.338806,163.317139 235.342209,163.391144 
	C239.352905,163.465271 241.920761,161.283600 242.797195,157.383926 
	C243.119431,155.950119 242.986908,154.404327 242.987823,152.909576 
	C242.998291,135.773056 242.994476,118.636528 242.994461,100.500000 
M315.500610,91.213356 
	C310.842163,91.213364 306.183716,91.212280 301.525269,91.214256 
	C300.527100,91.214676 299.524475,91.167397 298.531525,91.242470 
	C293.632324,91.612854 290.321564,94.765739 290.377838,98.965134 
	C290.434875,103.221626 293.705017,106.197334 298.785431,106.209381 
	C323.242188,106.267380 347.699158,106.239548 372.156036,106.238838 
	C373.486694,106.238800 374.822876,106.280792 376.146942,106.178947 
	C380.171631,105.869370 382.651489,103.727989 383.087677,99.686958 
	C383.549164,95.411446 381.451965,92.651772 377.349792,91.598999 
	C375.771423,91.193932 374.055328,91.230064 372.401764,91.228012 
	C353.767975,91.204880 335.134155,91.213455 315.500610,91.213356 
M355.499969,80.125046 
	C362.320465,80.111267 369.144440,80.224670 375.960144,80.037010 
	C380.192657,79.920471 382.735168,77.521660 383.117065,73.222855 
	C383.481842,69.116402 380.794739,65.882881 376.576538,65.210854 
	C375.599762,65.055229 374.585022,65.114471 373.587769,65.114304 
	C349.133057,65.110153 324.678314,65.099236 300.223602,65.120010 
	C294.053802,65.125252 290.422913,67.939362 290.382965,72.608353 
	C290.342651,77.320435 293.875732,80.105087 300.100739,80.114647 
	C318.233795,80.142509 336.366913,80.124901 355.499969,80.125046 
M347.232056,40.491184 
	C344.691162,38.983921 342.189362,36.256344 339.602875,36.173576 
	C325.982849,35.737732 312.341095,35.914532 298.707642,35.998558 
	C293.723541,36.029278 290.419861,39.127914 290.381439,43.397430 
	C290.343201,47.646038 293.683655,50.897072 298.596985,50.931770 
	C312.230316,51.028049 325.865326,51.040962 339.498474,50.933765 
	C345.605469,50.885750 348.198547,47.576584 347.232056,40.491184 
z"/>
<path fill="#A2AEE6" opacity="1.000000" stroke="none" 
	d="
M466.000000,513.000000 
	C315.312439,513.000000 164.624878,513.000000 13.761797,512.705688 
	C9.761562,508.530609 5.944297,504.642303 2.083686,500.797516 
	C1.936105,500.650513 1.370706,500.923004 1.000001,501.000000 
	C1.000000,485.979095 1.000000,470.958221 1.310680,455.762421 
	C4.214670,452.078400 7.511242,450.761993 12.024584,450.887573 
	C22.974115,451.192322 33.939678,450.920990 45.371376,450.924347 
	C53.818748,451.004242 61.793495,451.066040 69.768303,451.074799 
	C109.809013,451.118713 149.849747,451.148743 189.925201,451.635254 
	C189.974228,457.085327 189.926666,462.084961 190.017349,467.082031 
	C190.153351,474.576355 195.482040,479.966675 203.005112,479.977570 
	C238.995605,480.029633 274.986237,480.030731 310.976746,479.977325 
	C318.750427,479.965759 323.885925,474.589569 323.991608,466.676208 
	C324.060547,461.512421 324.072266,456.347870 324.569824,451.148285 
	C328.846466,451.101593 332.662811,451.084961 336.479187,451.079712 
	C369.995514,451.033722 403.511841,450.989685 437.491730,451.000763 
	C448.340912,450.992401 458.726562,450.928345 469.530029,450.923950 
	C471.633911,451.043304 473.319977,451.103027 475.235840,451.403748 
	C480.457458,453.723694 482.073944,457.707092 482.026245,462.818451 
	C481.937592,472.310547 482.392029,481.827545 481.823242,491.286255 
	C481.567749,495.535248 480.349792,500.405945 477.840637,503.663666 
	C474.866577,507.525055 470.029602,509.951599 466.000000,513.000000 
M60.910427,487.216522 
	C62.968723,481.347809 60.693039,476.658325 55.182514,476.120667 
	C51.404251,475.752014 47.344753,475.309448 43.817333,476.319305 
	C41.277611,477.046417 38.206154,479.811371 37.599346,482.226868 
	C37.063564,484.359680 38.976460,488.014435 40.931763,489.670563 
	C44.585560,492.765167 56.668400,491.204926 60.910427,487.216522 
M91.413742,475.996399 
	C89.593849,475.999329 87.768555,475.913086 85.955139,476.022949 
	C81.642410,476.284241 78.197014,479.729980 78.276695,483.594727 
	C78.353653,487.326843 81.607918,490.718689 85.668480,490.939301 
	C89.131721,491.127441 92.786781,491.613342 96.032425,490.748901 
	C98.560768,490.075500 101.621902,487.943604 102.529167,485.688568 
	C103.317917,483.728027 102.183693,479.814819 100.510971,478.352142 
	C98.576241,476.660339 95.122765,476.705414 91.413742,475.996399 
z"/>
<path fill="#000000" opacity="1.000000" stroke="none" 
	d="
M475.006042,451.162750 
	C473.319977,451.103027 471.633911,451.043304 469.689514,450.635254 
	C477.330719,446.618805 480.961945,440.094666 480.969696,431.722992 
	C481.048431,346.476929 481.027863,261.230774 481.006348,175.984650 
	C481.004181,167.347748 474.292664,158.167923 465.710693,157.178391 
	C455.561066,156.008087 445.227020,156.436737 434.508972,156.121033 
	C428.076752,156.028000 422.108490,155.986221 416.076477,155.483154 
	C416.009155,108.865845 416.101532,62.709251 415.828827,16.554817 
	C415.805786,12.654588 413.471649,8.715255 411.939026,4.903486 
	C411.352325,3.444315 410.002228,2.292088 409.000000,0.999994 
	C443.639496,1.000000 478.278961,1.000000 513.000000,1.000000 
	C513.000000,152.020889 513.000000,303.041779 512.687439,454.820618 
	C509.694916,454.050568 507.074005,451.344604 504.324402,451.206818 
	C494.575348,450.718384 484.782379,451.106659 475.006042,451.162750 
z"/>
<path fill="#000000" opacity="1.000000" stroke="none" 
	d="
M44.898781,450.881744 
	C33.939678,450.920990 22.974115,451.192322 12.024584,450.887573 
	C7.511242,450.761993 4.214670,452.078400 1.310680,455.293762 
	C1.000000,303.785400 1.000000,152.570786 1.000000,1.000000 
	C35.353409,1.000000 69.708046,1.000000 104.531342,1.000000 
	C104.976875,1.513824 105.160660,2.308753 104.900352,2.500353 
	C98.410973,7.276872 97.865028,13.965723 97.898293,21.371775 
	C98.098412,65.919197 97.993256,110.467995 97.476097,155.501221 
	C82.968704,155.990906 68.954758,156.468414 54.988770,155.854614 
	C43.294445,155.340668 32.787006,166.406662 32.831146,178.058990 
	C33.147915,261.683929 33.062263,345.310730 32.917896,428.936615 
	C32.900970,438.742279 36.280609,446.089050 44.898781,450.881744 
z"/>
<path fill="#D8ECFE" opacity="1.000000" stroke="none" 
	d="
M408.531372,0.999994 
	C410.002228,2.292088 411.352325,3.444315 411.939026,4.903486 
	C413.471649,8.715255 415.805786,12.654588 415.828827,16.554817 
	C416.101532,62.709251 416.009155,108.865845 415.996887,155.948212 
	C415.980377,166.977966 415.979706,177.081390 415.975037,187.641785 
	C415.978729,193.559891 416.102539,199.023834 415.968384,204.481461 
	C415.735321,213.962601 409.636230,219.962830 400.290070,219.988525 
	C392.182495,220.010834 384.074615,219.927002 375.966888,219.890076 
	C376.917206,218.816650 377.752960,217.607178 378.837921,216.693649 
	C383.191956,213.027557 385.144623,208.438217 385.040710,202.728363 
	C384.877808,193.779739 384.989197,184.826096 384.982208,174.938660 
	C384.964722,161.048584 384.949463,148.094452 384.934204,135.140320 
	C384.955505,95.739014 384.962463,56.337685 385.012299,16.936415 
	C385.020538,10.426708 381.423279,5.888690 377.038269,1.347521 
	C387.354218,1.000000 397.708466,1.000000 408.531372,0.999994 
z"/>
<path fill="#8795DE" opacity="1.000000" stroke="none" 
	d="
M475.235840,451.403748 
	C484.782379,451.106659 494.575348,450.718384 504.324402,451.206818 
	C507.074005,451.344604 509.694916,454.050568 512.687439,455.289307 
	C513.000000,470.020905 513.000000,485.041779 512.702881,500.244415 
	C508.540283,504.236725 504.666779,508.039337 500.837769,511.886200 
	C500.679016,512.045654 500.936462,512.619324 501.000000,513.000000 
	C489.645782,513.000000 478.291534,513.000000 466.468658,513.000000 
	C470.029602,509.951599 474.866577,507.525055 477.840637,503.663666 
	C480.349792,500.405945 481.567749,495.535248 481.823242,491.286255 
	C482.392029,481.827545 481.937592,472.310547 482.026245,462.818451 
	C482.073944,457.707092 480.457458,453.723694 475.235840,451.403748 
z"/>
<path fill="#000000" opacity="1.000000" stroke="none" 
	d="
M501.479187,513.000000 
	C500.936462,512.619324 500.679016,512.045654 500.837769,511.886200 
	C504.666779,508.039337 508.540283,504.236725 512.702881,500.713074 
	C513.000000,504.921967 513.000000,508.843964 513.000000,513.000000 
	C509.321411,513.000000 505.639893,513.000000 501.479187,513.000000 
z"/>
<path fill="#000000" opacity="1.000000" stroke="none" 
	d="
M1.000001,501.479187 
	C1.370706,500.923004 1.936105,500.650513 2.083686,500.797516 
	C5.944297,504.642303 9.761562,508.530609 13.293139,512.705688 
	C9.078021,513.000000 5.156042,513.000000 1.000000,513.000000 
	C1.000000,509.321411 1.000000,505.639893 1.000001,501.479187 
z"/>
<path fill="#D8ECFE" opacity="1.000000" stroke="none" 
	d="
M374.750000,0.999997 
	C374.727600,1.107070 374.455200,1.214146 374.091400,1.160611 
	C374.000000,1.000000 374.500000,1.000000 374.750000,0.999997 
z"/>
<path fill="#99E5FC" opacity="1.000000" stroke="none" 
	d="
M375.501984,219.918732 
	C384.074615,219.927002 392.182495,220.010834 400.290070,219.988525 
	C409.636230,219.962830 415.735321,213.962601 415.968384,204.481461 
	C416.102539,199.023834 415.978729,193.559891 416.301758,187.689011 
	C417.068329,187.333481 417.504181,187.387726 418.035522,187.818237 
	C418.419464,190.311905 418.958771,192.429169 418.960022,194.546768 
	C419.003601,267.533478 419.006348,340.520172 418.953033,413.506866 
	C418.951263,415.956970 418.310150,418.406586 417.505096,420.926331 
	C301.427002,421.007568 185.810806,420.992767 70.194778,421.115845 
	C65.019516,421.121368 64.138794,418.831543 64.150734,414.418213 
	C64.252983,376.601593 64.209229,338.784546 64.209335,300.967651 
	C64.209435,265.316467 64.266670,229.665100 64.140854,194.014374 
	C64.124420,189.356827 65.475769,187.419281 70.427711,187.604004 
	C79.577896,187.945282 88.748962,187.726822 97.911331,187.741531 
	C98.183868,194.375168 97.882881,201.096039 98.874992,207.620255 
	C100.098579,215.666687 106.047913,219.958633 114.515984,219.966675 
	C149.003281,219.999420 183.495682,220.306198 217.974686,219.770554 
	C227.504807,219.622498 234.039948,220.887848 237.964020,230.952408 
	C241.678925,240.480392 247.537048,249.186493 252.643478,258.145264 
	C253.535950,259.711060 255.481415,261.860657 256.745941,261.737793 
	C258.415375,261.575592 260.437103,259.743500 261.364746,258.097839 
	C267.654572,246.939636 273.837830,235.714905 279.728729,224.342361 
	C281.434479,221.049393 283.418304,219.892776 287.070007,219.907867 
	C316.391907,220.029053 345.714630,219.958969 375.501984,219.918732 
M126.721848,379.585754 
	C135.713501,379.651550 144.709351,379.912933 153.695465,379.720245 
	C160.672150,379.570679 163.926575,376.206360 163.936829,369.507538 
	C163.990662,334.349701 163.982620,299.191742 163.940704,264.033905 
	C163.934113,258.508911 161.130585,254.605347 155.829971,254.424347 
	C145.891754,254.085037 135.924271,254.603455 125.032364,254.766495 
	C121.538055,254.775421 118.041298,254.704544 114.549988,254.811478 
	C108.923805,254.983795 106.101448,257.844360 105.929436,263.540558 
	C105.829025,266.865570 105.902931,270.195923 105.902924,273.523895 
	C105.902878,305.472473 105.886978,337.421051 105.917999,369.369598 
	C105.924568,376.135590 108.658821,379.021057 115.029984,379.156738 
	C118.689209,379.234680 122.351212,379.182373 126.721848,379.585754 
M281.500031,343.417389 
	C256.541931,343.417297 231.583862,343.412872 206.625778,343.426208 
	C204.799606,343.427185 202.959122,343.436005 201.150253,343.651093 
	C196.976761,344.147430 194.329056,346.511017 194.119522,350.737823 
	C193.893433,355.298492 196.705353,357.728699 200.949066,358.558594 
	C202.398514,358.842102 203.928925,358.762207 205.422363,358.762634 
	C238.533417,358.772430 271.644470,358.774109 304.755524,358.758636 
	C306.412109,358.757874 308.102966,358.769531 309.718597,358.463074 
	C314.086304,357.634613 316.492157,355.019867 316.152252,350.434662 
	C315.828064,346.061035 313.221252,343.856476 308.941010,343.769165 
	C300.128662,343.589508 291.313843,343.528198 281.500031,343.417389 
M225.500031,317.229553 
	C221.506363,317.229523 217.512405,317.199432 213.519104,317.237549 
	C209.198425,317.278809 204.832565,317.023468 200.571182,317.564789 
	C196.504456,318.081329 193.912872,320.822723 194.121536,325.126984 
	C194.324448,329.312744 196.749847,331.846008 201.066879,332.188416 
	C203.717514,332.398621 206.380112,332.564423 209.037506,332.566559 
	C240.653900,332.592072 272.270325,332.591736 303.886688,332.563721 
	C306.039551,332.561798 308.228912,332.482056 310.337006,332.091644 
	C314.371704,331.344299 316.264465,328.683319 316.184631,324.637299 
	C316.088379,319.757812 312.808289,317.246521 306.373047,317.240417 
	C279.748718,317.215240 253.124374,317.229889 225.500031,317.229553 
M224.500000,369.848633 
	C217.001282,369.851990 209.501358,369.774994 202.004288,369.888153 
	C197.350632,369.958374 194.175446,372.985901 194.063477,377.101746 
	C193.957001,381.015900 196.807938,384.138153 201.162079,384.763245 
	C202.307861,384.927734 203.490219,384.860565 204.655792,384.860718 
	C238.483459,384.864960 272.311157,384.878784 306.138733,384.826660 
	C308.094452,384.823639 310.198181,384.638550 311.972382,383.906494 
	C315.280853,382.541290 316.582275,379.722717 316.122040,376.185669 
	C315.654358,372.591156 313.523743,370.489105 309.978149,369.980164 
	C308.341736,369.745270 306.652161,369.853241 304.986694,369.852875 
	C278.491119,369.846893 251.995560,369.848541 224.500000,369.848633 
M386.976501,339.476562 
	C392.157501,334.296112 397.363647,329.140472 402.511566,323.927399 
	C406.689514,319.696533 407.224854,314.743378 403.930969,311.666443 
	C400.794556,308.736542 396.005707,309.361786 392.070648,313.284363 
	C385.139771,320.193237 378.239594,327.132843 370.663849,334.723663 
	C365.955627,329.809357 361.672577,325.205322 357.239563,320.750519 
	C353.060211,316.550568 348.920563,316.319763 345.514496,319.865997 
	C342.254272,323.260376 342.579590,327.069580 346.642365,331.187439 
	C352.606567,337.232544 358.613007,343.236847 364.660706,349.198395 
	C368.859100,353.336975 372.899200,353.316925 377.274933,349.142303 
	C380.406586,346.154633 383.413727,343.036438 386.976501,339.476562 
M249.486633,303.110077 
	C252.479355,303.109344 255.472610,303.143951 258.464691,303.100372 
	C264.258423,303.016022 267.750122,300.168274 267.723938,295.605377 
	C267.698242,291.125671 264.064026,288.128723 258.341583,288.114777 
	C240.052780,288.070160 221.763779,288.076447 203.474945,288.109558 
	C197.653900,288.120087 194.173187,290.906738 194.057785,295.456665 
	C193.937744,300.189117 197.489197,303.085510 203.600281,303.097961 
	C218.563858,303.128418 233.527557,303.109344 249.486633,303.110077 
z"/>
<path fill="#54469C" opacity="1.000000" stroke="none" 
	d="
M98.028435,187.305298 
	C88.748962,187.726822 79.577896,187.945282 70.427711,187.604004 
	C65.475769,187.419281 64.124420,189.356827 64.140854,194.014374 
	C64.266670,229.665100 64.209435,265.316467 64.209335,300.967651 
	C64.209229,338.784546 64.252983,376.601593 64.150734,414.418213 
	C64.138794,418.831543 65.019516,421.121368 70.194778,421.115845 
	C185.810806,420.992767 301.427002,421.007568 417.971375,421.003418 
	C427.493469,421.026825 436.088501,421.119324 444.680359,420.994049 
	C446.369354,420.969452 448.046143,420.103790 449.801025,420.109985 
	C450.866241,432.943298 449.436554,444.267395 437.028168,450.945068 
	C403.511841,450.989685 369.995514,451.033722 336.479187,451.079712 
	C332.662811,451.084961 328.846466,451.101593 324.095367,451.081116 
	C298.701050,451.030182 274.241455,450.980591 249.781921,451.001465 
	C229.818069,451.018494 209.854279,451.119751 189.890472,451.183655 
	C149.849747,451.148743 109.809013,451.118713 69.768303,451.074799 
	C61.793495,451.066040 53.818748,451.004242 45.371376,450.924347 
	C36.280609,446.089050 32.900970,438.742279 32.917896,428.936615 
	C33.062263,345.310730 33.147915,261.683929 32.831146,178.058990 
	C32.787006,166.406662 43.294445,155.340668 54.988770,155.854614 
	C68.954758,156.468414 82.968704,155.990906 97.422241,155.963394 
	C97.970245,166.250137 98.057892,176.559601 98.028435,187.305298 
z"/>
<path fill="#56499E" opacity="1.000000" stroke="none" 
	d="
M156.069489,77.046280 
	C157.444595,73.420509 158.713791,70.167427 159.958755,66.905090 
	C162.596359,59.993511 165.157761,57.711906 170.235092,57.771225 
	C176.166229,57.840511 178.372543,61.889759 180.174194,66.699539 
	C189.331100,91.145653 198.599808,115.549873 207.823578,139.970963 
	C209.351288,144.015762 210.908157,148.050964 212.348236,152.127121 
	C214.202850,157.376541 212.764389,161.376740 208.555054,163.008011 
	C204.268921,164.669067 200.460968,162.709335 198.404938,157.602798 
	C196.666489,153.284988 195.345322,148.780075 193.333374,144.601654 
	C192.607986,143.095169 190.429077,141.357803 188.880157,141.325546 
	C176.224869,141.061981 163.559906,141.078781 150.903397,141.311478 
	C149.458344,141.338058 147.400925,142.910721 146.741608,144.296555 
	C144.747803,148.487427 143.355606,152.960434 141.630005,157.283997 
	C139.487854,162.651215 135.559799,164.738831 131.192978,162.950439 
	C127.001991,161.234070 125.585182,157.303070 127.585220,152.016403 
	C136.998947,127.133286 146.489471,102.279221 156.069489,77.046280 
M185.928040,124.913834 
	C180.827240,111.260681 175.726440,97.607536 170.625641,83.954391 
	C170.234314,84.018875 169.843002,84.083366 169.451691,84.147850 
	C164.214172,97.951080 158.976654,111.754311 153.665161,125.752518 
	C164.878937,125.752518 175.296494,125.752518 185.928040,124.913834 
z"/>
<path fill="#FEF057" opacity="1.000000" stroke="none" 
	d="
M353.010223,175.952209 
	C333.027069,175.988174 313.043396,175.958832 293.061218,176.117325 
	C289.239777,176.147644 288.111755,174.455505 288.135437,170.999969 
	C288.208496,160.341797 288.240265,149.681931 288.122406,139.024551 
	C288.078278,135.031677 289.899780,133.938629 293.644684,133.965057 
	C313.129059,134.102585 332.614777,134.048340 352.743683,134.482590 
	C353.590332,135.865387 353.966309,136.825821 353.969879,137.787628 
	C354.011963,149.076096 354.033234,160.365005 353.955322,171.653076 
	C353.945404,173.088226 353.339844,174.519272 353.010223,175.952209 
z"/>
<path fill="#55479C" opacity="1.000000" stroke="none" 
	d="
M242.994461,101.000000 
	C242.994476,118.636528 242.998291,135.773056 242.987823,152.909576 
	C242.986908,154.404327 243.119431,155.950119 242.797195,157.383926 
	C241.920761,161.283600 239.352905,163.465271 235.342209,163.391144 
	C231.338806,163.317139 228.867096,161.069321 228.105240,157.127121 
	C227.887482,156.000351 227.997589,154.805634 227.997421,153.642075 
	C227.993011,124.859360 227.985794,96.076645 228.000458,67.293938 
	C228.003647,61.024822 230.690765,57.711704 235.598755,57.784420 
	C240.445526,57.856232 242.973419,61.156391 242.987747,67.557976 
	C243.012329,78.538605 242.994476,89.519318 242.994461,101.000000 
z"/>
<path fill="#574A9E" opacity="1.000000" stroke="none" 
	d="
M316.000488,91.213440 
	C335.134155,91.213455 353.767975,91.204880 372.401764,91.228012 
	C374.055328,91.230064 375.771423,91.193932 377.349792,91.598999 
	C381.451965,92.651772 383.549164,95.411446 383.087677,99.686958 
	C382.651489,103.727989 380.171631,105.869370 376.146942,106.178947 
	C374.822876,106.280792 373.486694,106.238800 372.156036,106.238838 
	C347.699158,106.239548 323.242188,106.267380 298.785431,106.209381 
	C293.705017,106.197334 290.434875,103.221626 290.377838,98.965134 
	C290.321564,94.765739 293.632324,91.612854 298.531525,91.242470 
	C299.524475,91.167397 300.527100,91.214676 301.525269,91.214256 
	C306.183716,91.212280 310.842163,91.213364 316.000488,91.213440 
z"/>
<path fill="#56499E" opacity="1.000000" stroke="none" 
	d="
M355.000000,80.125076 
	C336.366913,80.124901 318.233795,80.142509 300.100739,80.114647 
	C293.875732,80.105087 290.342651,77.320435 290.382965,72.608353 
	C290.422913,67.939362 294.053802,65.125252 300.223602,65.120010 
	C324.678314,65.099236 349.133057,65.110153 373.587769,65.114304 
	C374.585022,65.114471 375.599762,65.055229 376.576538,65.210854 
	C380.794739,65.882881 383.481842,69.116402 383.117065,73.222855 
	C382.735168,77.521660 380.192657,79.920471 375.960144,80.037010 
	C369.144440,80.224670 362.320465,80.111267 355.000000,80.125076 
z"/>
<path fill="#FFD15B" opacity="1.000000" stroke="none" 
	d="
M353.474579,176.015167 
	C353.339844,174.519272 353.945404,173.088226 353.955322,171.653076 
	C354.033234,160.365005 354.011963,149.076096 353.969879,137.787628 
	C353.966309,136.825821 353.590332,135.865387 353.211304,134.539734 
	C363.423950,134.359818 373.812622,134.544479 384.567749,134.934723 
	C384.949463,148.094452 384.964722,161.048584 384.972076,174.465622 
	C383.235138,175.324509 381.510010,176.040985 379.776367,176.062302 
	C371.165131,176.168198 362.551636,176.090897 353.474579,176.015167 
z"/>
<path fill="#56489D" opacity="1.000000" stroke="none" 
	d="
M347.396210,40.845806 
	C348.198547,47.576584 345.605469,50.885750 339.498474,50.933765 
	C325.865326,51.040962 312.230316,51.028049 298.596985,50.931770 
	C293.683655,50.897072 290.343201,47.646038 290.381439,43.397430 
	C290.419861,39.127914 293.723541,36.029278 298.707642,35.998558 
	C312.341095,35.914532 325.982849,35.737732 339.602875,36.173576 
	C342.189362,36.256344 344.691162,38.983921 347.396210,40.845806 
z"/>
<path fill="#463B84" opacity="1.000000" stroke="none" 
	d="
M437.491730,451.000763 
	C449.436554,444.267395 450.866241,432.943298 449.867279,419.675476 
	C449.893005,386.655701 449.953796,354.554443 449.949921,322.453156 
	C449.944519,278.042908 449.890472,233.632675 449.897766,188.744568 
	C449.956024,185.603775 449.968079,182.940781 449.992523,180.277908 
	C450.063232,172.579636 447.877655,165.870667 441.509369,161.016388 
	C439.352783,159.372513 437.152985,157.785370 434.972931,156.172302 
	C445.227020,156.436737 455.561066,156.008087 465.710693,157.178391 
	C474.292664,158.167923 481.004181,167.347748 481.006348,175.984650 
	C481.027863,261.230774 481.048431,346.476929 480.969696,431.722992 
	C480.961945,440.094666 477.330719,446.618805 469.271698,450.575562 
	C458.726562,450.928345 448.340912,450.992401 437.491730,451.000763 
z"/>
<path fill="#6C7FD8" opacity="1.000000" stroke="none" 
	d="
M189.925201,451.635254 
	C209.854279,451.119751 229.818069,451.018494 249.781921,451.001465 
	C274.241455,450.980591 298.701050,451.030182 323.635132,451.116455 
	C324.072266,456.347870 324.060547,461.512421 323.991608,466.676208 
	C323.885925,474.589569 318.750427,479.965759 310.976746,479.977325 
	C274.986237,480.030731 238.995605,480.029633 203.005112,479.977570 
	C195.482040,479.966675 190.153351,474.576355 190.017349,467.082031 
	C189.926666,462.084961 189.974228,457.085327 189.925201,451.635254 
z"/>
<path fill="#E65BAB" opacity="1.000000" stroke="none" 
	d="
M60.701637,487.551331 
	C56.668400,491.204926 44.585560,492.765167 40.931763,489.670563 
	C38.976460,488.014435 37.063564,484.359680 37.599346,482.226868 
	C38.206154,479.811371 41.277611,477.046417 43.817333,476.319305 
	C47.344753,475.309448 51.404251,475.752014 55.182514,476.120667 
	C60.693039,476.658325 62.968723,481.347809 60.701637,487.551331 
z"/>
<path fill="#E65AAB" opacity="1.000000" stroke="none" 
	d="
M91.871208,475.996399 
	C95.122765,476.705414 98.576241,476.660339 100.510971,478.352142 
	C102.183693,479.814819 103.317917,483.728027 102.529167,485.688568 
	C101.621902,487.943604 98.560768,490.075500 96.032425,490.748901 
	C92.786781,491.613342 89.131721,491.127441 85.668480,490.939301 
	C81.607918,490.718689 78.353653,487.326843 78.276695,483.594727 
	C78.197014,479.729980 81.642410,476.284241 85.955139,476.022949 
	C87.768555,475.913086 89.593849,475.999329 91.871208,475.996399 
z"/>
<path fill="#54469C" opacity="1.000000" stroke="none" 
	d="
M434.508972,156.121033 
	C437.152985,157.785370 439.352783,159.372513 441.509369,161.016388 
	C447.877655,165.870667 450.063232,172.579636 449.992523,180.277908 
	C449.968079,182.940781 449.956024,185.603775 449.584778,188.518692 
	C447.904816,188.221008 446.580322,187.202637 445.251648,187.197205 
	C436.148254,187.160019 427.043976,187.335205 417.940002,187.441986 
	C417.504181,187.387726 417.068329,187.333481 416.305756,187.232025 
	C415.979706,177.081390 415.980377,166.977966 416.060638,156.409515 
	C422.108490,155.986221 428.076752,156.028000 434.508972,156.121033 
z"/>
<path fill="#8AC9FD" opacity="1.000000" stroke="none" 
	d="
M418.035522,187.818237 
	C427.043976,187.335205 436.148254,187.160019 445.251648,187.197205 
	C446.580322,187.202637 447.904816,188.221008 449.544250,188.996552 
	C449.890472,233.632675 449.944519,278.042908 449.949921,322.453156 
	C449.953796,354.554443 449.893005,386.655701 449.794800,419.191528 
	C448.046143,420.103790 446.369354,420.969452 444.680359,420.994049 
	C436.088501,421.119324 427.493469,421.026825 418.433289,420.933533 
	C418.310150,418.406586 418.951263,415.956970 418.953033,413.506866 
	C419.006348,340.520172 419.003601,267.533478 418.960022,194.546768 
	C418.958771,192.429169 418.419464,190.311905 418.035522,187.818237 
z"/>
<path fill="#9958BD" opacity="1.000000" stroke="none" 
	d="
M125.968948,254.765137 
	C135.924271,254.603455 145.891754,254.085037 155.829971,254.424347 
	C161.130585,254.605347 163.934113,258.508911 163.940704,264.033905 
	C163.982620,299.191742 163.990662,334.349701 163.936829,369.507538 
	C163.926575,376.206360 160.672150,379.570679 153.695465,379.720245 
	C144.709351,379.912933 135.713501,379.651550 126.713821,379.290955 
	C131.192841,377.562225 132.911697,374.076569 132.920273,369.795349 
	C132.990692,334.670013 132.985870,299.544434 132.930405,264.419037 
	C132.922928,259.677094 130.978394,256.042908 125.968948,254.765137 
z"/>
<path fill="#E659AA" opacity="1.000000" stroke="none" 
	d="
M125.500656,254.765808 
	C130.978394,256.042908 132.922928,259.677094 132.930405,264.419037 
	C132.985870,299.544434 132.990692,334.670013 132.920273,369.795349 
	C132.911697,374.076569 131.192841,377.562225 126.358879,379.092438 
	C122.351212,379.182373 118.689209,379.234680 115.029984,379.156738 
	C108.658821,379.021057 105.924568,376.135590 105.917999,369.369598 
	C105.886978,337.421051 105.902878,305.472473 105.902924,273.523895 
	C105.902931,270.195923 105.829025,266.865570 105.929436,263.540558 
	C106.101448,257.844360 108.923805,254.983795 114.549988,254.811478 
	C118.041298,254.704544 121.538055,254.775421 125.500656,254.765808 
z"/>
<path fill="#564A9F" opacity="1.000000" stroke="none" 
	d="
M282.000061,343.417786 
	C291.313843,343.528198 300.128662,343.589508 308.941010,343.769165 
	C313.221252,343.856476 315.828064,346.061035 316.152252,350.434662 
	C316.492157,355.019867 314.086304,357.634613 309.718597,358.463074 
	C308.102966,358.769531 306.412109,358.757874 304.755524,358.758636 
	C271.644470,358.774109 238.533417,358.772430 205.422363,358.762634 
	C203.928925,358.762207 202.398514,358.842102 200.949066,358.558594 
	C196.705353,357.728699 193.893433,355.298492 194.119522,350.737823 
	C194.329056,346.511017 196.976761,344.147430 201.150253,343.651093 
	C202.959122,343.436005 204.799606,343.427185 206.625778,343.426208 
	C231.583862,343.412872 256.541931,343.417297 282.000061,343.417786 
z"/>
<path fill="#564A9F" opacity="1.000000" stroke="none" 
	d="
M226.000031,317.229736 
	C253.124374,317.229889 279.748718,317.215240 306.373047,317.240417 
	C312.808289,317.246521 316.088379,319.757812 316.184631,324.637299 
	C316.264465,328.683319 314.371704,331.344299 310.337006,332.091644 
	C308.228912,332.482056 306.039551,332.561798 303.886688,332.563721 
	C272.270325,332.591736 240.653900,332.592072 209.037506,332.566559 
	C206.380112,332.564423 203.717514,332.398621 201.066879,332.188416 
	C196.749847,331.846008 194.324448,329.312744 194.121536,325.126984 
	C193.912872,320.822723 196.504456,318.081329 200.571182,317.564789 
	C204.832565,317.023468 209.198425,317.278809 213.519104,317.237549 
	C217.512405,317.199432 221.506363,317.229523 226.000031,317.229736 
z"/>
<path fill="#55499E" opacity="1.000000" stroke="none" 
	d="
M225.000000,369.848541 
	C251.995560,369.848541 278.491119,369.846893 304.986694,369.852875 
	C306.652161,369.853241 308.341736,369.745270 309.978149,369.980164 
	C313.523743,370.489105 315.654358,372.591156 316.122040,376.185669 
	C316.582275,379.722717 315.280853,382.541290 311.972382,383.906494 
	C310.198181,384.638550 308.094452,384.823639 306.138733,384.826660 
	C272.311157,384.878784 238.483459,384.864960 204.655792,384.860718 
	C203.490219,384.860565 202.307861,384.927734 201.162079,384.763245 
	C196.807938,384.138153 193.957001,381.015900 194.063477,377.101746 
	C194.175446,372.985901 197.350632,369.958374 202.004288,369.888153 
	C209.501358,369.774994 217.001282,369.851990 225.000000,369.848541 
z"/>
<path fill="#97DA7D" opacity="1.000000" stroke="none" 
	d="
M386.726471,339.726501 
	C383.413727,343.036438 380.406586,346.154633 377.274933,349.142303 
	C372.899200,353.316925 368.859100,353.336975 364.660706,349.198395 
	C358.613007,343.236847 352.606567,337.232544 346.642365,331.187439 
	C342.579590,327.069580 342.254272,323.260376 345.514496,319.865997 
	C348.920563,316.319763 353.060211,316.550568 357.239563,320.750519 
	C361.672577,325.205322 365.955627,329.809357 370.663849,334.723663 
	C378.239594,327.132843 385.139771,320.193237 392.070648,313.284363 
	C396.005707,309.361786 400.794556,308.736542 403.930969,311.666443 
	C407.224854,314.743378 406.689514,319.696533 402.511566,323.927399 
	C397.363647,329.140472 392.157501,334.296112 386.726471,339.726501 
z"/>
<path fill="#55499E" opacity="1.000000" stroke="none" 
	d="
M248.988922,303.110138 
	C233.527557,303.109344 218.563858,303.128418 203.600281,303.097961 
	C197.489197,303.085510 193.937744,300.189117 194.057785,295.456665 
	C194.173187,290.906738 197.653900,288.120087 203.474945,288.109558 
	C221.763779,288.076447 240.052780,288.070160 258.341583,288.114777 
	C264.064026,288.128723 267.698242,291.125671 267.723938,295.605377 
	C267.750122,300.168274 264.258423,303.016022 258.464691,303.100372 
	C255.472610,303.143951 252.479355,303.109344 248.988922,303.110138 
z"/>
<path fill="#E8F3FE" opacity="1.000000" stroke="none" 
	d="
M185.821045,125.333176 
	C175.296494,125.752518 164.878937,125.752518 153.665161,125.752518 
	C158.976654,111.754311 164.214172,97.951080 169.451691,84.147850 
	C169.843002,84.083366 170.234314,84.018875 170.625641,83.954391 
	C175.726440,97.607536 180.827240,111.260681 185.821045,125.333176 
z"/>
</svg>